<?xml version="1.0" encoding="UTF-8"?>
<svg version="1.1" viewBox="0 0 1600 1256" width="1280" height="1280" xmlns="http://www.w3.org/2000/svg">
<path transform="translate(0)" d="m0 0h1600v1256h-1600v-1256z" fill="#FDFDFD"/>
<path transform="translate(805,292)" d="m0 0c8.4 6.15 13.2 15.2 18.5 23.9 3.9 6.29 8.02 12.4 12.2 18.6 6.39 9.5 12.6 19.1 18.4 28.9 3.1 5.26 6.36 10.4 9.79 15.4 2.77 4.15 5.41 8.39 8.06 12.6 4.17 6.64 8.48 13.1 13 19.5 2.8 4.08 5.35 8.29 7.92 12.5 3.77 6.18 7.77 12.2 11.7 18.3 1.41 2.18 2.82 4.35 4.22 6.53 4.31 6.69 8.65 13.4 13.1 20 4.95 7.39 9.79 14.8 14.6 22.3 3.7 5.7 7.41 11.4 11.1 17.1 8.55 13.1 17.1 26.2 25.4 39.4 4.36 6.87 8.77 13.7 13.3 20.5 3.57 5.32 7.05 10.7 10.5 16.1 2.61 4.06 5.27 8.09 7.96 12.1 4.05 6.07 7.98 12.2 11.9 18.4 6.62 10.4 13.4 20.7 20.2 30.9 14.2 21.2 14.2 21.2 20.6 31.6 3.01 4.89 6.17 9.65 9.37 14.4 1.25 1.87 2.49 3.73 3.73 5.6 0.651 0.976 1.3 1.95 1.97 2.96 1.4 2.1 2.8 4.2 4.2 6.3 4.38 6.57 4.38 6.57 8.76 13.1 5.91 8.82 11.7 17.7 17.5 26.6 5.77 8.84 11.6 17.6 17.5 26.4 4.85 7.26 9.65 14.5 14.3 21.9 4.72 7.35 9.62 14.6 14.5 21.8 4.33 6.44 8.55 12.9 12.6 19.5 3.37 5.45 6.93 10.7 10.8 15.8 7.01 9.75 13.2 20.1 19.6 30.3 3.73 5.98 7.62 11.8 11.6 17.7 7.07 10.5 13.9 21.1 20.6 31.8 4.91 7.79 9.9 15.5 15 23.2 12 18 23.7 36.1 35.1 54.5 0.439 0.705 0.879 1.41 1.33 2.14 0.844 1.36 1.69 2.71 2.53 4.07 2.66 4.27 5.44 8.43 8.43 12.5 1.29 2.55 1.41 4.07 0.961 6.89-1.72 2.18-1.72 2.18-4.06 4.31-2.97 2.8-5.8 5.58-8.44 8.69-5.71 6.63-12 12.6-18.6 18.3-1.82 1.61-3.51 3.3-5.2 5.05-3.63 3.69-7.59 6.88-11.6 10.1-2.12 1.73-4.2 3.48-6.25 5.29-8.49 7.48-17.4 14.1-26.6 20.7-2.64 1.89-5.25 3.82-7.86 5.76-33.3 24.8-70.5 45.7-108 62.8-0.954 0.446-1.91 0.892-2.89 1.35-5.89 2.74-11.9 5.12-17.9 7.41-2.81 1.1-5.5 2.31-8.22 3.62-12.1 5.64-25.2 9.45-37.9 13.6-1.42 0.474-1.42 0.474-2.86 0.957-10.4 3.47-20.8 6.57-31.5 8.95-3.89 0.883-7.72 1.92-11.6 2.96-8.4 2.27-16.9 4.22-25.4 6.13-1.55 0.352-3.11 0.703-4.66 1.05-2.29 0.517-4.57 1.03-6.86 1.55-4 0.901-7.99 1.82-12 2.77-7.42 1.75-14.6 2.96-22.2 3.35-3.07 0.285-5.78 0.938-8.74 1.78-5.88 1.62-11.6 1.98-17.6 2.21-3.93 0.0649-3.93 0.0649-7.61 1.29-1.56 0.0212-3.13-0.0101-4.69-0.0625-6.5-0.0635-12.9 0.438-19.4 1-1.02 0.0869-2.05 0.174-3.1 0.263-5.5 0.466-5.5 0.466-10.8 1.8-1.67 0.0703-3.33 0.0843-5 0.0625-0.969-0.00773-1.94-0.0155-2.94-0.0234-2.04-0.026-4.08-0.0521-6.12-0.0781-0.969-0.00773-1.94-0.0155-2.94-0.0234-0.887-0.0116-1.77-0.0232-2.69-0.0352-2.47-0.00209-2.47-0.00209-5.31 1.1-1.68 0.0932-3.36 0.131-5.04 0.133-1.46 0.00193-1.46 0.00193-2.95 0.00391-1.02-0.00387-2.03-0.00773-3.08-0.0117-1.02 0.00387-2.04 0.00773-3.09 0.0117-0.973-0.00129-1.95-0.00258-2.95-0.00391-1.34-0.00169-1.34-0.00169-2.7-0.00342-2.2-0.129-2.2-0.129-4.2-1.13-1.68-0.0727-3.37-0.0837-5.05-0.0625-1.01 0.00773-2.02 0.0155-3.06 0.0234-2.13 0.0259-4.25 0.0519-6.38 0.0781-1.01 0.00773-2.03 0.0155-3.07 0.0234-0.925 0.0116-1.85 0.0232-2.8 0.0352-2.66-0.0981-5.06-0.514-7.65-1.1-4.39-0.66-8.68-1.05-13.1-0.887-8.33 0.0315-16.6-1.29-24.8-2.36-1.8-0.231-3.6-0.462-5.41-0.694-4.43-0.571-8.85-1.15-13.3-1.74-2.15-0.285-4.3-0.568-6.45-0.849-16.9-2.24-33.4-5.54-49.9-9.47-1.52-0.359-1.52-0.359-3.08-0.725-4.47-1.05-8.94-2.12-13.4-3.2-3.07-0.741-6.15-1.44-9.24-2.12-5.38-1.19-10.6-2.72-15.9-4.28-2.67-0.774-5.35-1.52-8.03-2.26-27-7.62-53.1-17.5-78.6-29.2-2.55-1.16-5.11-2.28-7.68-3.39-9.6-4.16-18.8-8.76-28-13.8-0.87-0.467-1.74-0.933-2.64-1.41-34.2-18.3-66.1-39.3-96.4-63.6l-2.99-2.4c-13.3-10.8-13.3-10.8-17-14.6v-2c-0.58-0.264-1.16-0.529-1.76-0.801-5.17-2.76-9.46-7.1-13.1-11.6-3.21-3.94-7.11-6.83-11.1-9.86-0.652-0.561-1.3-1.12-1.98-1.7v-2h-2c-1.27-1.26-1.27-1.26-2.81-3.12-4.04-4.76-8.29-9.31-12.6-13.9-1.07-1.14-2.13-2.29-3.18-3.44-1.26-1.37-2.54-2.72-3.83-4.06-2.18-3.41-2.11-5.53-1.61-9.51 1.29-2.71 1.29-2.71 3.19-5.38l2.21-3.13c0.863-1.17 1.73-2.33 2.6-3.5 0.482-0.648 0.965-1.3 1.46-1.96 5.72-7.65 11.6-15.2 17.6-22.6 8.13-10.1 16.2-20.3 23-31.3 2.7-4.25 5.55-8.39 8.41-12.5 4.91-7.15 9.77-14.3 14.6-21.6 2.01-3.01 4.01-6.02 6.02-9.03 1.27-1.91 2.54-3.82 3.8-5.73 6.85-10.3 13.9-20.5 20.9-30.8 7.69-11.2 7.69-11.2 15.3-22.5 3.35-5.05 6.76-10.1 10.2-15.1 0.558-0.814 1.12-1.63 1.69-2.47 2.76-4.03 5.52-8.05 8.29-12.1 6-8.73 11.9-17.5 17.8-26.3 5.66-8.52 11.4-17 17.3-25.3 3.64-5.17 7.22-10.4 10.7-15.7 7-10.6 14.1-21.2 21.2-31.7 0.883-1.3 1.76-2.61 2.65-3.92 5.16-7.64 10.4-15.2 15.8-22.7 3.03-4.22 5.89-8.5 8.65-12.9 4.16-6.54 8.53-12.9 13-19.2 4.11-5.82 8.11-11.7 11.9-17.7 4.18-6.53 8.65-12.9 13-19.3 3.16-4.61 6.31-9.23 9.45-13.8 3.83-5.62 7.66-11.2 11.5-16.8 0.426-0.616 0.851-1.23 1.29-1.87 0.426-0.616 0.851-1.23 1.29-1.87 3.45-5.02 6.82-10.1 10.2-15.2 5.16-7.79 10.3-15.6 15.9-23 4.14-5.53 7.93-11.2 11.6-17 6.94-10.8 14.3-21.4 21.5-32 1.2-1.75 2.4-3.51 3.59-5.26 8.09-11.8 8.09-11.8 12.1-17.6 6.27-9.07 12.4-18.2 18.5-27.4 3.83-5.78 7.8-11.4 11.9-17 3.04-4.21 5.89-8.53 8.74-12.9 4.52-6.85 9.11-13.6 13.8-20.4 5.13-7.45 10.2-15 15.3-22.5 1.58-2.34 3.16-4.68 4.74-7.02 6.72-9.94 13.4-19.9 20-29.9 2.03-3.04 4.06-6.08 6.09-9.12 1.45-2.17 2.89-4.33 4.34-6.5 0.38-0.568 0.76-1.14 1.15-1.72 3.8-5.68 7.58-11.4 11.2-17.1 0.502-0.789 1-1.58 1.52-2.39 0.898-1.42 1.79-2.84 2.67-4.27 2.1-3.32 3.99-5.85 7.35-7.94z" fill="#FDFDFD"/>
<path transform="translate(944 106)" d="m0 0c3.39 0.87 6.78 1.68 10.2 2.46 7.52 1.73 15 3.62 22.4 5.84 1.62 0.485 3.25 0.964 4.88 1.44 16.7 4.87 32.9 10.6 49 17 2.9 1.12 5.81 2.2 8.74 3.26 29.7 10.8 58.3 25.6 85.9 40.8 5.18 2.85 10.4 5.62 15.7 8.23 16.5 8.18 32.5 16.8 47.9 26.9 0.991 0.647 1.98 1.29 3 1.96 3.19 2.09 6.38 4.19 9.56 6.29 0.987 0.649 1.97 1.3 2.99 1.97 6.43 4.28 12.5 8.88 18.4 13.8 1.4 1.13 2.8 2.25 4.2 3.38 13.6 11 13.6 11 19.8 16.6 0.839 0.748 1.68 1.5 2.54 2.27 6.32 5.7 12.4 11.6 18.5 17.6 0.73 0.726 1.46 1.45 2.21 2.2 2.74 2.75 5.4 5.43 7.79 8.5 2.38 2.89 5.07 5.15 7.9 7.57 3.35 2.96 6.37 6.2 9.41 9.48 0.971 1.04 0.971 1.04 1.96 2.11 9.51 10.3 18.3 21 26.7 32.3 0.681 0.91 0.681 0.91 1.38 1.84 6.14 8.22 12 16.6 17.6 25.2 0.81 1.21 1.62 2.42 2.43 3.62 5.39 8.01 10.6 16.1 15.6 24.4 0.355 0.583 0.709 1.17 1.07 1.77 8.56 14.1 16.3 28.6 23.9 43.2 0.534 1.03 1.07 2.05 1.62 3.11 43 83.6 63.1 185 43.4 359-0.355 1.38-0.355 1.38-0.718 2.78-5.88 22.4-14 44-23.3 65.2-0.335 0.77-0.669 1.54-1.01 2.33-15.3 34.8-37.3 66.6-62.1 95.3-4.06 4.7-7.98 9.52-11.9 14.4-4.35-2.22-6.41-4.62-9.06-8.69-3.46-5.2-7.09-10.2-10.9-15.2-8.15-10.8-15.4-22-22.5-33.5-3.33-5.35-6.85-10.5-10.5-15.6-9.95-13.9-9.95-13.9-13.6-19.1-0.683-0.994-0.683-0.994-1.38-2.01-1.16-2.05-1.8-3.51-2.06-5.87 0.68-2.35 0.68-2.35 1.88-5.06 0.464-1.06 0.928-2.12 1.41-3.21 1.98-4.33 4.04-8.62 6.09-12.9 35.3-74 44.3-160 32.6-241-0.182-1.27-0.364-2.54-0.551-3.84-5.97-39.8-17.9-78.5-34.4-115-0.378-0.852-0.757-1.7-1.15-2.58-9.46-21.2-21.5-41-34.3-60.2-1.32-1.98-2.63-3.96-3.95-5.94-6.65-9.99-13.3-19.9-21.4-28.8-2.57-2.94-4.93-6.02-7.3-9.11-7.79-10.1-16.4-19.7-26.2-27.9-2.44-2.17-4.46-4.63-6.57-7.12-2.87-3.22-5.9-6.28-8.95-9.33-0.576-0.58-1.15-1.16-1.74-1.76-2.94-3.02-2.94-3.02-6.44-5.3v-2c-0.552-0.232-1.1-0.464-1.67-0.703-2.95-1.65-5.12-3.73-7.58-6.05-3.68-3.42-7.4-6.62-11.5-9.56-2.49-1.84-4.9-3.75-7.32-5.67-6.18-4.9-12.4-9.57-19-14-1.13-0.806-1.13-0.806-2.27-1.63-6.45-4.62-13.1-8.81-19.9-13-3.03-1.87-6.01-3.81-8.98-5.77-20.5-13.1-42.9-23.4-65-33.3-1.75-0.787-3.5-1.58-5.25-2.38-32-14.6-67.7-24.9-102-31.5-2.74-0.522-5.48-1.06-8.21-1.61-47.9-9.32-95.7-11.3-144-8.97-0.836 0.0391-1.67 0.0782-2.53 0.119-14.4 0.693-28.4 2.31-42.5 5.1-3.62 0.702-7.24 1.36-10.9 2-22.5 4-44.4 9.09-66.2 16-2.56 0.817-5.12 1.61-7.69 2.41-22.9 7.22-45.3 16.7-66.8 27.4-2.14 1.06-4.28 2.11-6.42 3.15-14.3 7.01-28.3 14.7-41.6 23.5-2.63 1.75-5.27 3.47-7.91 5.21-10.7 7.06-21.3 14.1-31.3 22.2-1.28 1.03-2.56 2.05-3.84 3.07-22.9 18-22.9 18-43.2 38.7-2.65 2.98-5.49 5.74-8.34 8.53-5.65 5.58-10.7 11.4-15.6 17.7-0.741 0.924-1.48 1.85-2.25 2.8-7.5 9.5-14.2 19.5-21 29.5-1.1 1.64-2.2 3.28-3.31 4.92-24 35.4-41.6 75.9-53.6 117-0.731 2.49-1.48 4.97-2.25 7.45-6.08 20.2-9.23 41.3-12.4 62.1-0.158 1.02-0.158 1.02-0.319 2.06-2.3 15-3.08 29.7-3.06 44.8 0.00127 0.857 0.00254 1.71 0.00385 2.6 0.17 60.7 11.7 123 37.9 178 0.318 0.67 0.637 1.34 0.965 2.03 1.56 3.28 3.14 6.55 4.76 9.81 3.18 6.49 6.26 12.9 5.56 20.3-1.27 3.33-2.97 6.08-5 9l-1.4 2.12c-7.67 11.3-16 22.2-24.2 33.1-8.97 11.9-17.5 24-25.8 36.4-2.81 4.24-5.65 8.46-8.53 12.7l-2.15 3.14c-1.53 2.09-3 3.87-4.91 5.61-10.8-9.47-21.7-19.1-29.7-31.1-1.57-2.33-3.18-4.63-4.79-6.94-6.99-10.1-13.6-20.1-19.5-30.9-0.612-1.11-1.22-2.22-1.85-3.37-4.88-8.93-9.15-18-13.1-27.4-0.3-0.709-0.599-1.42-0.908-2.15-5.37-12.8-10.1-25.7-14.2-38.9-0.987-3.17-2.01-6.33-3.04-9.49-7.92-24.8-12.8-50.7-16.3-76.5-0.143-1.04-0.287-2.08-0.435-3.16-2.8-22.4-3.53-44.9-3.45-67.4 0.0114-3.45 0.0046-6.9-0.00688-10.4-0.105-37.4 3.17-74 12.3-110 0.36-1.45 0.36-1.45 0.728-2.93 4.36-17.1 10.9-33.4 17.4-49.8 2.32-5.84 4.58-11.7 6.81-17.6 16.1-42.5 35.6-82.9 61.1-121 0.482-0.718 0.964-1.44 1.46-2.17 20.6-30.5 44.1-57.6 70.1-83.4 3.62-3.6 7.23-7.2 10.8-10.8 7.21-7.34 14.5-14.2 22.6-20.5 1.21-0.989 2.43-1.98 3.64-2.98 13.5-11.1 27.4-21.8 41.7-31.9 1.61-1.13 3.2-2.28 4.8-3.42 7.18-5.09 14.6-9.63 22.2-14 3.23-1.87 6.44-3.77 9.63-5.71 15-9.06 30.4-17.1 46-25 1.15-0.592 2.31-1.18 3.5-1.79 8.01-4.07 16.1-7.7 24.4-11.1 1.27-0.519 2.53-1.04 3.8-1.56 10.5-4.31 21.1-8.52 31.7-12.6 2.31-0.893 4.61-1.81 6.91-2.74 38.3-15.1 80.2-23.1 121-30.2 0.976-0.179 1.95-0.358 2.96-0.542 13.9-2.55 28-3.74 42.1-4.94 4.02-0.345 8.04-0.729 12.1-1.15 65.8-6.51 136 0.0605 200 16.7z" fill="#FC6633"/>
<path transform="translate(805,292)" d="m0 0c8.4 6.15 13.2 15.2 18.5 23.9 3.9 6.29 8.02 12.4 12.2 18.6 6.39 9.5 12.6 19.1 18.4 28.9 3.1 5.26 6.36 10.4 9.79 15.4 2.77 4.15 5.41 8.39 8.06 12.6 4.17 6.64 8.48 13.1 13 19.5 2.8 4.08 5.35 8.29 7.92 12.5 3.77 6.18 7.77 12.2 11.7 18.3 1.41 2.18 2.82 4.35 4.22 6.53 4.31 6.69 8.65 13.4 13.1 20 4.95 7.39 9.79 14.8 14.6 22.3 3.7 5.7 7.41 11.4 11.1 17.1 8.55 13.1 17.1 26.2 25.4 39.4 4.36 6.87 8.77 13.7 13.3 20.5 3.57 5.32 7.05 10.7 10.5 16.1 2.61 4.06 5.27 8.09 7.96 12.1 4.05 6.07 7.98 12.2 11.9 18.4 6.62 10.4 13.4 20.7 20.2 30.9 14.2 21.2 14.2 21.2 20.6 31.6 3.01 4.89 6.17 9.65 9.37 14.4 1.25 1.87 2.49 3.73 3.73 5.6 0.651 0.976 1.3 1.95 1.97 2.96 1.4 2.1 2.8 4.2 4.2 6.3 4.38 6.57 4.38 6.57 8.76 13.1 5.91 8.82 11.7 17.7 17.5 26.6 5.77 8.84 11.6 17.6 17.5 26.4 4.85 7.26 9.65 14.5 14.3 21.9 4.72 7.35 9.62 14.6 14.5 21.8 4.33 6.44 8.55 12.9 12.6 19.5 3.37 5.45 6.93 10.7 10.8 15.8 7.01 9.75 13.2 20.1 19.6 30.3 3.73 5.98 7.62 11.8 11.6 17.7 7.07 10.5 13.9 21.1 20.6 31.8 4.91 7.79 9.9 15.5 15 23.2 12 18 23.7 36.1 35.1 54.5 0.439 0.705 0.879 1.41 1.33 2.14 0.844 1.36 1.69 2.71 2.53 4.07 2.66 4.27 5.44 8.43 8.43 12.5 1.29 2.55 1.41 4.07 0.961 6.89-1.72 2.18-1.72 2.18-4.06 4.31-2.97 2.8-5.8 5.58-8.44 8.69-5.71 6.63-12 12.6-18.6 18.3-1.82 1.61-3.51 3.3-5.2 5.05-3.63 3.69-7.59 6.88-11.6 10.1-2.12 1.73-4.2 3.48-6.25 5.29-8.49 7.48-17.4 14.1-26.6 20.7-2.64 1.89-5.25 3.82-7.86 5.76-33.3 24.8-70.5 45.7-108 62.8-0.954 0.446-1.91 0.892-2.89 1.35-5.89 2.74-11.9 5.12-17.9 7.41-2.81 1.1-5.5 2.31-8.22 3.62-12.1 5.64-25.2 9.45-37.9 13.6-1.42 0.474-1.42 0.474-2.86 0.957-10.4 3.47-20.8 6.57-31.5 8.95-3.89 0.883-7.72 1.92-11.6 2.96-8.4 2.27-16.9 4.22-25.4 6.13-1.55 0.352-3.11 0.703-4.66 1.05-2.29 0.517-4.57 1.03-6.86 1.55-4 0.901-7.99 1.82-12 2.77-7.42 1.75-14.6 2.96-22.2 3.35-3.07 0.285-5.78 0.938-8.74 1.78-5.88 1.62-11.6 1.98-17.6 2.21-3.93 0.0649-3.93 0.0649-7.61 1.29-1.56 0.0212-3.13-0.0101-4.69-0.0625-6.5-0.0635-12.9 0.438-19.4 1-1.02 0.0869-2.05 0.174-3.1 0.263-5.5 0.466-5.5 0.466-10.8 1.8-1.67 0.0703-3.33 0.0843-5 0.0625-0.969-0.00773-1.94-0.0155-2.94-0.0234-2.04-0.026-4.08-0.0521-6.12-0.0781-0.969-0.00773-1.94-0.0155-2.94-0.0234-0.887-0.0116-1.77-0.0232-2.69-0.0352-2.47-0.00209-2.47-0.00209-5.31 1.1-1.68 0.0932-3.36 0.131-5.04 0.133-1.46 0.00193-1.46 0.00193-2.95 0.00391-1.02-0.00387-2.03-0.00773-3.08-0.0117-1.02 0.00387-2.04 0.00773-3.09 0.0117-0.973-0.00129-1.95-0.00258-2.95-0.00391-1.34-0.00169-1.34-0.00169-2.7-0.00342-2.2-0.129-2.2-0.129-4.2-1.13-1.68-0.0727-3.37-0.0837-5.05-0.0625-1.01 0.00773-2.02 0.0155-3.06 0.0234-2.13 0.0259-4.25 0.0519-6.38 0.0781-1.01 0.00773-2.03 0.0155-3.07 0.0234-0.925 0.0116-1.85 0.0232-2.8 0.0352-2.66-0.0981-5.06-0.514-7.65-1.1-4.39-0.66-8.68-1.05-13.1-0.887-8.33 0.0315-16.6-1.29-24.8-2.36-1.8-0.231-3.6-0.462-5.41-0.694-4.43-0.571-8.85-1.15-13.3-1.74-2.15-0.285-4.3-0.568-6.45-0.849-16.9-2.24-33.4-5.54-49.9-9.47-1.52-0.359-1.52-0.359-3.08-0.725-4.47-1.05-8.94-2.12-13.4-3.2-3.07-0.741-6.15-1.44-9.24-2.12-5.38-1.19-10.6-2.72-15.9-4.28-2.67-0.774-5.35-1.52-8.03-2.26-27-7.62-53.1-17.5-78.6-29.2-2.55-1.16-5.11-2.28-7.68-3.39-9.6-4.16-18.8-8.76-28-13.8-0.87-0.467-1.74-0.933-2.64-1.41-34.2-18.3-66.1-39.3-96.4-63.6l-2.99-2.4c-13.3-10.8-13.3-10.8-17-14.6v-2c-0.58-0.264-1.16-0.529-1.76-0.801-5.17-2.76-9.46-7.1-13.1-11.6-3.21-3.94-7.11-6.83-11.1-9.86-0.652-0.561-1.3-1.12-1.98-1.7v-2h-2c-1.27-1.26-1.27-1.26-2.81-3.12-4.04-4.76-8.29-9.31-12.6-13.9-1.07-1.14-2.13-2.29-3.18-3.44-1.26-1.37-2.54-2.72-3.83-4.06-2.18-3.41-2.11-5.53-1.61-9.51 1.29-2.71 1.29-2.71 3.19-5.38l2.21-3.13c0.863-1.17 1.73-2.33 2.6-3.5 0.482-0.648 0.965-1.3 1.46-1.96 5.72-7.65 11.6-15.2 17.6-22.6 8.13-10.1 16.2-20.3 23-31.3 2.7-4.25 5.55-8.39 8.41-12.5 4.91-7.15 9.77-14.3 14.6-21.6 2.01-3.01 4.01-6.02 6.02-9.03 1.27-1.91 2.54-3.82 3.8-5.73 6.85-10.3 13.9-20.5 20.9-30.8 7.69-11.2 7.69-11.2 15.3-22.5 3.35-5.05 6.76-10.1 10.2-15.1 0.558-0.814 1.12-1.63 1.69-2.47 2.76-4.03 5.52-8.05 8.29-12.1 6-8.73 11.9-17.5 17.8-26.3 5.66-8.52 11.4-17 17.3-25.3 3.64-5.17 7.22-10.4 10.7-15.7 7-10.6 14.1-21.2 21.2-31.7 0.883-1.3 1.76-2.61 2.65-3.92 5.16-7.64 10.4-15.2 15.8-22.7 3.03-4.22 5.89-8.5 8.65-12.9 4.16-6.54 8.53-12.9 13-19.2 4.11-5.82 8.11-11.7 11.9-17.7 4.18-6.53 8.65-12.9 13-19.3 3.16-4.61 6.31-9.23 9.45-13.8 3.83-5.62 7.66-11.2 11.5-16.8 0.426-0.616 0.851-1.23 1.29-1.87 0.426-0.616 0.851-1.23 1.29-1.87 3.45-5.02 6.82-10.1 10.2-15.2 5.16-7.79 10.3-15.6 15.9-23 4.14-5.53 7.93-11.2 11.6-17 6.94-10.8 14.3-21.4 21.5-32 1.2-1.75 2.4-3.51 3.59-5.26 8.09-11.8 8.09-11.8 12.1-17.6 6.27-9.07 12.4-18.2 18.5-27.4 3.83-5.78 7.8-11.4 11.9-17 3.04-4.21 5.89-8.53 8.74-12.9 4.52-6.85 9.11-13.6 13.8-20.4 5.13-7.45 10.2-15 15.3-22.5 1.58-2.34 3.16-4.68 4.74-7.02 6.72-9.94 13.4-19.9 20-29.9 2.03-3.04 4.06-6.08 6.09-9.12 1.45-2.17 2.89-4.33 4.34-6.5 0.38-0.568 0.76-1.14 1.15-1.72 3.8-5.68 7.58-11.4 11.2-17.1 0.502-0.789 1-1.58 1.52-2.39 0.898-1.42 1.79-2.84 2.67-4.27 2.1-3.32 3.99-5.85 7.35-7.94zm-1 188c-3.22 2.96-5.32 5.95-7.46 9.76-0.637 1.12-1.27 2.24-1.93 3.39-0.662 1.18-1.32 2.36-1.98 3.53-3.87 6.85-7.74 13.6-12.2 20.1-2.19 3.38-4.05 6.92-5.95 10.5-2.38 4.39-4.94 8.66-7.5 13-1.15 1.94-2.3 3.88-3.45 5.82-0.881 1.49-0.881 1.49-1.78 3-2.86 4.84-5.69 9.7-8.52 14.6-5.23 8.99-10.5 18-15.8 26.9-5.3 9.04-10.6 18.1-15.9 27.1-0.572 0.981-1.14 1.96-1.73 2.97-3.07 5.26-6.12 10.5-9.16 15.8-4.66 8.09-9.42 16.1-14.2 24.1-3.9 6.48-7.71 13-11.5 19.6-2.91 5.05-5.85 10.1-8.81 15.1-4.27 7.24-8.51 14.5-12.8 21.8-0.62 1.06-1.24 2.12-1.88 3.22-0.577 0.989-1.15 1.98-1.75 3-0.518 0.887-1.04 1.77-1.57 2.69-0.784 1.37-1.54 2.75-2.24 4.16-2.99 0.633-2.99 0.633-6.88 1.12-1.26 0.168-2.51 0.335-3.8 0.508-10.3 1.04-20.6 0.175-30.9-0.453-1.02-0.0516-2.03-0.103-3.08-0.156-0.909-0.0524-1.82-0.105-2.76-0.159-2.98 0.155-4.95 0.754-7.6 2.14-1.45 1.52-1.45 1.52-2.46 3.38-0.408 0.675-0.816 1.35-1.24 2.04-0.408 0.706-0.816 1.41-1.24 2.14-0.82 1.38-1.64 2.75-2.46 4.13-0.629 1.06-0.629 1.06-1.27 2.14-1.83 3-3.79 5.91-5.76 8.82-2.79 4.18-5.49 8.42-8.19 12.7-0.912 1.43-0.912 1.43-1.84 2.89-4.49 7.08-8.84 14.2-13.1 21.5-3.89 6.54-7.94 13-12 19.4-3.81 6-7.43 12.1-11 18.2-2.52 4.33-5.19 8.5-8.02 12.6-2.09 3.22-3.84 6.62-5.65 10-1.71 3.09-3.51 6.08-5.37 9.08-0.712 1.15-1.42 2.3-2.13 3.45-0.363 0.587-0.726 1.17-1.1 1.78-3.18 5.16-6.32 10.3-9.47 15.5-0.369 0.607-0.738 1.21-1.12 1.84-4.81 7.92-9.58 15.9-14.3 23.9-3.65 6.24-7.43 12.4-11.3 18.5-0.397 0.638-0.794 1.28-1.2 1.93-4.11 6.6-8.23 13.2-12.4 19.8-6.45 10.1-12.6 20.4-18.8 30.7-2.46 4.12-4.95 8.2-7.54 12.2-0.461 0.719-0.922 1.44-1.4 2.18-0.862 1.34-1.73 2.67-2.61 3.99-2.43 3.77-3.9 6.69-4.03 11.2 1.48 2.36 2.81 4.09 4.68 6.09 0.499 0.56 0.999 1.12 1.51 1.7 1.58 1.76 3.19 3.49 4.81 5.21 0.746 0.799 0.746 0.799 1.51 1.61 3.47 3.7 7.03 7.31 10.6 10.9 0.541 0.541 1.08 1.08 1.64 1.64 8.83 8.8 17.9 16.8 28.2 23.9l1.71 1.18c2.51 1.72 5.04 3.4 7.59 5.06 2.64 1.73 5.2 3.54 7.76 5.39 4.14 2.91 8.4 5.37 12.9 7.73 2.79 1.5 5.53 3.07 8.27 4.66 16.2 9.36 33.3 17.4 50.8 24 1.2 0.455 2.4 0.911 3.63 1.38 45.9 17.4 92.6 28.2 141 33.6 0.929 0.104 1.86 0.209 2.81 0.316 51.2 5.71 101 6.1 152 0.684 0.811-0.0844 1.62-0.169 2.46-0.256 27.8-2.9 55.3-7.33 82.5-13.7 0.871-0.201 1.74-0.403 2.64-0.61 43.8-10.3 88.5-26.7 127-49.4 0.704-0.41 1.41-0.82 2.13-1.24 4.32-2.53 8.6-5.13 12.9-7.76 0.914-0.558 1.83-1.12 2.77-1.69 16.9-10.5 33.1-22.4 47.6-36 4.08-3.84 8.35-7.36 12.8-10.8 1.94-1.41 1.94-1.41 2.83-3.52-1.28-2.45-2.62-4.77-4.06-7.12-0.932-1.55-1.86-3.1-2.79-4.64-0.761-1.26-0.761-1.26-1.54-2.55-2.88-4.8-5.67-9.65-8.48-14.5-7.5-12.9-15.1-25.7-22.9-38.4-8.26-13.4-16.3-26.9-24.3-40.4-4.9-8.35-9.92-16.6-15.1-24.8-4.49-7.06-8.84-14.2-13.2-21.3-0.363-0.599-0.725-1.2-1.1-1.81-1.82-3-3.63-6-5.45-9-3.1-5.13-6.22-10.3-9.33-15.4-0.569-0.936-1.14-1.87-1.72-2.84-4.31-7.08-8.68-14.1-13.1-21.2-4.21-6.79-8.31-13.6-12.4-20.5-4.81-8.07-9.73-16-14.8-23.9-5.78-8.99-11.2-18.1-16.5-27.4-0.615-1.08-0.615-1.08-1.24-2.19-0.447-1.17-0.893-2.34-1.35-3.55-1.43-2.45-2.19-3.3-4.91-4.21-3.12-0.41-6.18-0.576-9.32-0.675-1.84-0.0929-1.84-0.0929-3.71-0.188-17.5-0.766-34.9-0.599-52.4-0.52-5.04 0.0203-10.1 0.027-15.1 0.0349-12.7 0.022-25.5 0.0612-38.2 0.102-13.9 0.0442-27.7 0.0852-41.6 0.107-5.99 0.00995-12 0.0296-18 0.0569-3.7 0.0149-7.41 0.0215-11.1 0.0259-1.72 0.00375-3.44 0.011-5.16 0.0219-2.34 0.0144-4.68 0.0165-7.02 0.0156-1.31 0.00444-2.62 0.00888-3.97 0.0135-3.15-0.241-3.15-0.241-6.15-2.24 8.93-11.3 21-20.1 32.4-28.8 1.43-1.1 2.85-2.21 4.27-3.32 9.61-7.21 19.5-9.56 31.4-9.27 1.71 0.0193 1.71 0.0193 3.45 0.0391 11.3 0.194 22.7 0.906 34 1.62 10.5 0.655 21 0.97 31.5 0.717-1.68-5.92-4.52-11.1-7.38-16.6-0.534-1.02-1.07-2.03-1.62-3.08-4.44-8.4-9.11-16.7-13.9-24.9-3.49-6.03-6.87-12.1-10.3-18.2-3.88-6.96-7.8-13.9-11.9-20.8-9.34-15.7-18.1-31.8-26.8-47.8-3.14-5.77-6.31-11.5-9.55-17.2-2.37-4.19-4.71-8.38-7.03-12.6-6.33-11.5-12.7-22.9-19.2-34.2-0.851-1.5-0.851-1.5-1.72-3.02-2.81-4.83-5.43-8.91-9.66-12.6z" fill="#006339"/>
<path transform="translate(607 747)" d="m0 0c0.922-0.00304 1.84-0.00607 2.79-0.0092 1.5 0.0107 1.5 0.0107 3.02 0.0217 1.57 1.44e-4 1.57 1.44e-4 3.16 2.9e-4 3.4 0.00373 6.79 0.0226 10.2 0.0427 2.32 0.00684 4.64 0.0134 6.96 0.0195 17.1 0.0651 34.2 0.398 51.2 1.17 1.03 3.77 1.1 5.68-0.773 9.12-0.612 1.15-0.612 1.15-1.24 2.32-0.45 0.806-0.901 1.61-1.36 2.44-0.457 0.841-0.914 1.68-1.38 2.55-3.54 6.46-7.28 12.8-11.1 19.1-2.66 4.36-5.18 8.8-7.7 13.2-1.96 3.45-3.95 6.88-5.95 10.3-8.66 14.9-8.66 14.9-16.9 30-0.371 0.702-0.742 1.4-1.12 2.13-1.7 2.77-1.7 2.77-2.44 5.81 50.2 0.0604 100 0.0138 151-0.219 1.77-0.00822 1.77-0.00822 3.58-0.0166 14.4-0.067 28.8-0.138 43.2-0.21 12.4-0.0623 24.9-0.122 37.3-0.181 25.4-0.122 50.8-0.246 76.3-0.373-1.3-3.31-2.69-6.4-4.44-9.5-0.739-1.31-0.739-1.31-1.49-2.64-0.537-0.943-1.07-1.89-1.63-2.86-0.85-1.5-0.85-1.5-1.72-3.02-5.41-9.49-10.9-18.9-16.5-28.3-5.73-9.75-11.4-19.5-17-29.4-0.861-1.52-1.73-3.04-2.6-4.56-1.2-2.09-2.39-4.19-3.56-6.29-0.353-0.602-0.705-1.2-1.07-1.82-0.924-1.68-0.924-1.68-2.06-4.61 0.929-2.18 0.929-2.18 2-4 8.8-0.0234 17.6-0.0411 26.4-0.0518 4.09-0.00517 8.18-0.0122 12.3-0.0236 31.2-0.0846 31.2-0.0846 42.8 0.318 0.732 0.0123 1.46 0.0246 2.22 0.0372 3.38 0.162 5.07 0.556 7.75 2.69 1.97 2.55 3.2 5.1 4.53 8.03 1.28 2.22 2.57 4.42 3.88 6.62 1.39 2.45 2.76 4.91 4.12 7.38 1.37 2.46 2.75 4.92 4.12 7.38 0.363 0.647 0.726 1.29 1.1 1.96 5.79 10.3 11.8 20.5 17.8 30.7 0.498 0.849 0.995 1.7 1.51 2.57 1.33 2.27 2.66 4.53 3.99 6.8 0.372 0.634 0.745 1.27 1.13 1.92 2.06 3.5 4.14 6.98 6.23 10.5 3.35 5.57 6.62 11.2 9.89 16.8 4.07 6.99 8.14 14 12.2 20.9 4.7 7.97 9.35 16 14 24 4.88 8.38 9.85 16.7 14.9 25 5.38 8.75 10.6 17.6 15.8 26.4 2.16 3.7 4.33 7.39 6.5 11.1 0.42 0.715 0.84 1.43 1.27 2.17 2.22 3.77 4.46 7.53 6.73 11.3 2.55 4.23 4.9 8.56 7.25 12.9 1.44 2.61 2.95 5.17 4.5 7.72 2.68 4.41 5.17 8.9 7.61 13.4 1.21 2.22 2.47 4.38 3.77 6.55 1.62 3 1.62 3 1.62 6-1.17 0.657-1.17 0.657-2.36 1.33-13.5 7.65-26.9 15.5-39.9 23.9-3.48 2.21-7 4.35-10.5 6.47-0.623 0.377-1.25 0.755-1.89 1.14-1.76 1.05-3.53 2.08-5.3 3.11-0.994 0.603-1.99 1.21-3.01 1.83-4.07 1.6-5.85 1.72-9.99 0.172-2.72-3.08-4.63-6.55-6.62-10.1-0.603-1.04-1.21-2.07-1.83-3.14-1.87-3.23-3.71-6.48-5.55-9.74-1.09-1.9-2.18-3.8-3.27-5.7-3.29-5.74-6.51-11.5-9.73-17.3-0.6-1.08-1.2-2.16-1.82-3.27-2.53-4.56-5.06-9.12-7.59-13.7-5.6-10.1-11.3-20.2-17-30.2-2.25-3.97-4.5-7.95-6.74-11.9-1.64-2.91-3.29-5.82-4.94-8.73-1.76-3.11-3.51-6.21-5.25-9.33-4.23-7.54-8.8-14.7-13.7-21.9-0.66-0.99-1.32-1.98-2-3-2.46-0.479-2.46-0.479-5.41-0.432-1.77-0.0297-1.77-0.0297-3.57-0.06-1.34-0.00685-2.68-0.0133-4.02-0.0194-1.45-0.0171-2.9-0.0354-4.35-0.0547-4.13-0.05-8.27-0.0787-12.4-0.104-2.71-0.0177-5.42-0.0408-8.13-0.0656-88.4-0.802-177-0.63-346 0.736-0.293 0.779-0.585 1.56-0.887 2.36-1.11 2.64-1.11 2.64-2.93 4.89-1.79 2.25-3.08 4.24-4.45 6.75-2.89 5.27-5.84 10.5-8.8 15.8-0.568 1.01-1.14 2.01-1.72 3.05-3.2 5.66-6.42 11.3-9.65 16.9-7.08 12.3-14 24.8-20.9 37.2-1.43 2.57-2.86 5.13-4.3 7.7-8.03 14.3-15.7 28.8-23.4 43.3-3.36-0.551-5.91-1.3-8.82-3.07-0.701-0.421-1.4-0.842-2.12-1.28-0.719-0.442-1.44-0.883-2.18-1.34-4.69-2.85-9.4-5.61-14.2-8.21-5.76-3.12-11.3-6.56-16.8-10.1-1.39-0.886-1.39-0.886-2.8-1.79-8.16-5.22-16.2-10.5-24.1-16.2 0.584-4.79 2.72-8.56 5.06-12.7 0.433-0.771 0.865-1.54 1.31-2.34 4.65-8.19 9.63-16.2 14.6-24.2 5.71-9.22 11.1-18.6 16.5-28 9.67-17.1 19.6-34 29.8-50.8 4.7-7.76 9.27-15.6 13.7-23.5 3.5-6.17 7.06-12.3 10.9-18.2 6.44-10.1 12.3-20.6 18.3-31 8.84-15.4 17.9-30.7 27.1-45.8 0.679-1.11 1.36-2.22 2.06-3.37 0.643-1.05 1.29-2.1 1.95-3.19 1.99-3.36 3.82-6.78 5.56-10.3 2.47-3.5 5.77-3.95 9.85-3.95z" fill="#FC6633"/>
<path transform="translate(433,1008)" d="m0 0c3.47 3.42 6.79 6.94 10.1 10.6 16.3 17.7 33 33.6 53.2 46.7 2.64 1.73 5.2 3.54 7.76 5.39 4.14 2.91 8.4 5.37 12.9 7.73 2.79 1.5 5.53 3.07 8.27 4.66 16.2 9.36 33.3 17.4 50.8 24 1.2 0.455 2.4 0.911 3.63 1.38 45.9 17.4 92.6 28.2 141 33.6 0.929 0.104 1.86 0.209 2.81 0.316 51.2 5.71 101 6.1 152 0.684 0.811-0.0844 1.62-0.169 2.46-0.256 27.8-2.9 55.3-7.33 82.5-13.7l2.64-0.61c43.8-10.3 88.5-26.7 127-49.4 0.704-0.41 1.41-0.82 2.13-1.24 4.32-2.53 8.6-5.13 12.9-7.76 0.914-0.558 1.83-1.12 2.77-1.69 16.9-10.5 33.1-22.4 47.6-36 4.66-4.38 9.57-8.4 14.6-12.3-0.33-1.32-0.66-2.64-1-4l6 3c0.33 0.99 0.66 1.98 1 3h2v2h6c0.33 1.98 0.66 3.96 1 6h3v3c5.44-0.495 5.44-0.495 11-1 0.33 1.98 0.66 3.96 1 6 4.3 1.47 8.62 2.77 13 4v3c2.47 0.495 2.47 0.495 5 1v2h2v2h2v2h6v-2h2c-0.33 1.32-0.66 2.64-1 4h-2v2h-4c-0.268 0.722-0.536 1.44-0.812 2.19-1.2 2.85-2.34 5.33-4.19 7.81h-4c-0.66 1.98-1.32 3.96-2 6h-2c-0.33-1.98-0.66-3.96-1-6-1.31-0.0561-1.31-0.0561-2.64-0.113-8.11-0.448-15.6-1.62-23.4-3.89-0.122 0.562-0.245 1.12-0.371 1.7-0.681 2.49-1.62 4.7-2.69 7.05-0.362 0.799-0.724 1.6-1.1 2.42-0.277 0.603-0.554 1.21-0.84 1.83h-2c-0.289 0.619-0.577 1.24-0.875 1.88-1.35 2.55-2.33 3.88-5.12 4.75-4.33 0.542-8.64 0.451-13 0.375v5c-1.27 0.506-2.54 1-3.81 1.5-0.708 0.278-1.42 0.557-2.14 0.844-2.04 0.656-2.04 0.656-5.04 0.656v5c-1.49 0.495-1.49 0.495-3 1v6c0.66 0.33 1.32 0.66 2 1-0.784 0.743-1.57 1.48-2.38 2.25-2.19 2.29-3.45 3.87-4.62 6.75h-2v2h-17v5c-0.66 0.99-1.32 1.98-2 3-3.62 0.188-3.62 0.188-7 0v7c0.99 0.33 1.98 0.66 3 1h-4v2c-0.825 0.268-1.65 0.536-2.5 0.812-3.53 1.14-3.53 1.14-6.94 2.69-6.19 2.39-13 2.77-19.6 3.5-0.33 1.32-0.66 2.64-1 4h-3v3c-3.63 0.33-7.26 0.66-11 1v3c-1.38 1.69-1.38 1.69-3 3h-2v-2h-9v-3h-10v5c-1.19 1.81-1.19 1.81-3 3-2.69 0.188-2.69 0.188-5 0-0.33-0.66-0.66-1.32-1-2-2.13-0.467-2.13-0.467-4.56-0.625-0.826-0.0748-1.65-0.15-2.5-0.227-0.957-0.0735-0.957-0.0735-1.93-0.148 0.66-0.33 1.32-0.66 2-1 0.465-1.9 0.465-1.9 0.625-4.06 0.124-1.3 0.248-2.6 0.375-3.94h2c0.155-1.42 0.155-1.42 0.312-2.88 0.688-3.12 0.688-3.12 3.69-5.12 0.25-3.08 0.25-3.08 0-6h-9c-0.33 0.66-0.66 1.32-1 2-1.01-0.495-2.02-0.99-3.06-1.5-5.34-2.29-10.4-1.85-15.9-0.5v2c-1.48 0.495-1.48 0.495-3 1-0.33 0.66-0.66 1.32-1 2-2 0.491-4 0.963-6.02 1.37-2.92 0.619-5.79 1.35-8.68 2.1-6.88 1.79-13.7 3.17-20.7 4.04-2.8 0.363-2.8 0.363-5.57 2.49-3.71 1.01-7.11 1.05-10.9 0.938-4.53-0.0386-7.82 0.402-12.1 2.06-2.5 0.529-5.01 0.992-7.54 1.44-2.47 0.474-2.47 0.474-4.64 1.57-3.5 1.23-6.79 1.34-10.5 1.41-1.55 0.0521-3.09 0.106-4.64 0.16-0.811 0.0266-1.62 0.0532-2.46 0.0806-13.9 0.48-27.2 1.68-40.8 4.4-24.3 4.76-45.8 3.31-70.2 0.432-5.19-0.608-10.4-1.13-15.6-1.62-4.44-0.429-8.87-0.887-13.3-1.44-0.759-0.0939-1.52-0.188-2.3-0.285-2.03-0.255-4.06-0.52-6.09-0.786-4.65-0.427-9.33-0.367-14-0.367 12.4 1.49 12.4 1.49 25 3v1c-10.4 0.362-20.3-0.571-30.5-2.03-2.49-0.352-4.98-0.687-7.47-1.02-1.6-0.22-3.21-0.442-4.81-0.664-0.734-0.099-1.47-0.198-2.23-0.3-4.18-0.6-8.01-1.53-12-2.99v-2c-0.777 0.0209-1.55 0.0419-2.35 0.0635-20.3 0.468-39.6-0.939-59.6-4.06v-2c0.999 0.0838 2 0.168 3.03 0.254 1.29 0.102 2.58 0.204 3.91 0.309 1.29 0.104 2.58 0.209 3.9 0.316 1.04 0.04 2.09 0.0799 3.16 0.121 0.33-0.33 0.66-0.66 1-1-1.15-0.144-2.31-0.289-3.5-0.438-4.17-0.521-8.33-1.04-12.5-1.56v-2c-1.42 0.0309-1.42 0.0309-2.88 0.0625-3.12-0.0625-3.12-0.0625-5.12-1.06-1.99-0.363-4-0.692-6-1-5.78-0.889-5.78-0.889-8-2v-2c-1.14-0.186-1.14-0.186-2.31-0.375-2.04-0.346-4.09-0.709-6.11-1.14-6.15-1.25-11.8-1.6-18-1.27-3.07-0.27-3.52-1-5.53-3.22-2.26-0.994-2.26-0.994-4.69-1.69-0.808-0.251-1.62-0.503-2.45-0.762-0.615-0.182-1.23-0.364-1.86-0.551l1-2c-2.97-0.33-5.94-0.66-9-1v-2c0.66-0.33 1.32-0.66 2-1-0.783-2.15-0.783-2.15-2.71-2.6-5.74-1.2-11.4-1.94-17.3-2.4-0.33-0.99-0.66-1.98-1-3-2.01-1.2-2.01-1.2-4.56-2.19-11.4-4.94-22.3-10.5-32.8-17.2-2.51-1.65-2.51-1.65-4.97-2.1-0.843-0.23-0.843-0.23-1.7-0.465-0.33-0.99-0.66-1.98-1-3-2.32-1.46-2.32-1.46-5.06-2.69-0.919-0.437-1.84-0.874-2.79-1.32-0.71-0.326-1.42-0.652-2.15-0.988v-2c-0.804-0.227-1.61-0.454-2.44-0.688-14.3-5.28-27.7-15.8-38-26.9-1.49-1.51-1.49-1.51-3.53-2.38-2.36-1.21-3.52-2.55-5.2-4.59-2.61-3.1-5.32-5.95-8.25-8.75-7.05-7.04-13.4-13.5-13.6-23.9 0.0206-0.594 0.0412-1.19 0.0625-1.8z" fill="#006038"/>
<path transform="translate(551,664)" d="m0 0 3 3c0.33-0.99 0.66-1.98 1-3 0.33 3.63 0.66 7.26 1 11 0.33-0.99 0.66-1.98 1-3h2c0.33-0.66 0.66-1.32 1-2-0.368 7.94-2.62 13.4-7 20-3-1-3-1-4-2-0.33 0.66-0.66 1.32-1 2h-2c-0.0825 0.577-0.165 1.15-0.25 1.75-0.956 2.87-2.6 4.17-4.75 6.25-0.33 0.99-0.66 1.98-1 3h-2v5h-2v2h-2c0.0619 1.09 0.124 2.19 0.188 3.31-0.215 4.23-0.482 3.98-3.19 6.69-0.578 2.67-0.776 5.26-1 8 2.48-1.49 2.48-1.49 5-3 0.812 2.06 0.812 2.06 1 5-1.34 2.6-2.95 4.9-5 7h-2c-0.268 0.722-0.536 1.44-0.812 2.19-1.2 2.83-2.54 5.22-4.19 7.81-0.481 0.764-0.962 1.53-1.46 2.32-0.53 0.824-1.06 1.65-1.61 2.5-0.507 0.79-1.01 1.58-1.54 2.39-0.694 0.888-0.694 0.888-1.4 1.79h-2c-0.33 1.32-0.66 2.64-1 4h-2v2h-2c-0.21 4.14-0.21 4.14 1 8h-2v5h2v3c0.66 0.33 1.32 0.66 2 1l-2 4c0.66 0.33 1.32 0.66 2 1-4.16 3.75-7.74 5.9-13 8-2.82 1.19-2.82 1.19-5 3-0.679 2-1.35 4-2 6-2.12 0.875-2.12 0.875-4 1v6c-1.98 0.33-3.96 0.66-6 1-0.33 1.32-0.66 2.64-1 4h-2c-0.66 1.65-1.32 3.3-2 5h-2c-0.33 1.32-0.66 2.64-1 4h-2c-0.155 1.33-0.155 1.33-0.312 2.69-0.711 3.43-1.82 5.4-3.69 8.31-0.698 1.65-1.37 3.32-2 5h-2v2h-2c-0.33 1.65-0.66 3.3-1 5h-2v2h-2v2h-2c-0.184 0.843-0.184 0.843-0.371 1.7-0.681 2.49-1.62 4.7-2.69 7.05-0.362 0.799-0.724 1.6-1.1 2.42-0.277 0.603-0.554 1.21-0.84 1.83h-2v2h-2v3h-2v2h-2v2c-1.32 0.33-2.64 0.66-4 1-0.66 2.97-1.32 5.94-2 9h-2c0.0174-0.94 0.0174-0.94 0.0352-1.9 0.00902-0.817 0.018-1.63 0.0273-2.48 0.0174-1.22 0.0174-1.22 0.0352-2.46 0.047-2.21 0.047-2.21-1.1-4.16-1.97 1.97-1.66 5.35-2 8h-3v4h-2c0.0619 0.763 0.124 1.53 0.188 2.31-0.188 2.69-0.188 2.69-1.38 4.44-2.23 1.54-4.15 1.89-6.81 2.25-0.66 2.31-1.32 4.62-2 7h-4c0.0825 0.66 0.165 1.32 0.25 2-0.397 4.77-2.19 9.2-5.85 12.4-1.65 1.1-1.65 1.1-4.4 2.6 0.99-0.33 1.98-0.66 3-1-0.66 1.65-1.32 3.3-2 5h-2c-0.0825 0.701-0.165 1.4-0.25 2.12-0.925 3.55-2.69 5.85-4.75 8.88-0.547 1.24-1.07 2.49-1.56 3.75-1.44 3.25-1.44 3.25-4.44 5.25-1.21 1.95-1.21 1.95-2.19 4.12-0.344 0.724-0.688 1.45-1.04 2.2-0.254 0.554-0.508 1.11-0.77 1.68h-2c-0.33 1.32-0.66 2.64-1 4h-2v3h-2c-0.268 0.763-0.536 1.53-0.812 2.31-1.19 2.69-2.04 3.77-4.19 5.69-4.21 4-4.21 4-7 9h-3c-0.144 0.784-0.289 1.57-0.438 2.38-0.562 2.62-0.562 2.62-1.56 4.62h-2c-0.248 0.66-0.495 1.32-0.75 2-1.57 3.76-3.4 7.37-5.25 11-2.13-3.19-2.5-5.27-3-9-0.33 0.99-0.66 1.98-1 3 0.66 0.33 1.32 0.66 2 1-0.33 0.99-0.66 1.98-1 3-0.186 1.64-0.186 1.64-0.375 3.31-0.636 3.75-1.77 6.39-3.62 9.69-0.33-1.32-0.66-2.64-1-4-0.99 1.65-1.98 3.3-3 5-0.66-0.33-1.32-0.66-2-1l1-2.44c1.06-2.26 1.06-2.26 1-3.56-0.398 0.543-0.797 1.09-1.21 1.64-0.53 0.715-1.06 1.43-1.61 2.17-0.783 1.06-0.783 1.06-1.58 2.14-1.61 2.04-1.61 2.04-3.2 3.51-1.78 1.94-2.33 3.71-3.09 6.22-0.377 1.21-0.377 1.21-0.762 2.45l-0.551 1.86h-2c0.66 0.66 1.32 1.32 2 2v3h-2c-0.088 3.5-0.141 7-0.188 10.5-0.0251 0.982-0.0503 1.96-0.0762 2.98-0.0777 7.77 0.677 13.4 5.74 19.5 1.34 1.25 1.34 1.25 2.71 2.53 0.901 0.856 1.8 1.71 2.73 2.59 0.687 0.629 1.37 1.26 2.08 1.91-3.54 0-4.1-0.61-6.69-2.88-0.623-0.534-1.25-1.07-1.89-1.62-1.43-1.51-1.43-1.51-1.43-3.51h-2c-1.27-1.26-1.27-1.26-2.81-3.12-4.04-4.76-8.29-9.31-12.6-13.9-1.07-1.14-2.13-2.29-3.18-3.44-1.26-1.37-2.54-2.72-3.83-4.06-2.18-3.41-2.11-5.53-1.61-9.51 1.29-2.71 1.29-2.71 3.19-5.38 0.731-1.03 1.46-2.07 2.21-3.13 0.863-1.17 1.73-2.33 2.6-3.5 0.482-0.648 0.965-1.3 1.46-1.96 5.72-7.65 11.6-15.2 17.6-22.6 8.13-10.1 16.2-20.3 23-31.3 2.7-4.25 5.55-8.39 8.41-12.5 4.91-7.15 9.77-14.3 14.6-21.6 2.01-3.01 4.01-6.02 6.02-9.03 1.27-1.91 2.54-3.82 3.8-5.73 6.85-10.3 13.9-20.5 20.9-30.8 7.69-11.2 7.69-11.2 15.3-22.5 3.35-5.05 6.76-10.1 10.2-15.1 0.558-0.814 1.12-1.63 1.69-2.47 2.76-4.03 5.52-8.05 8.29-12.1 6-8.73 11.9-17.5 17.8-26.3 5.66-8.52 11.4-17 17.3-25.3 3.64-5.17 7.22-10.4 10.7-15.7 7-10.6 14.1-21.2 21.2-31.7 0.883-1.3 1.76-2.61 2.65-3.92 5.14-7.62 10.4-15.2 15.7-22.6 3.25-4.53 6.34-9.13 9.32-13.8 0.893-1.4 1.79-2.79 2.68-4.19 0.411-0.643 0.822-1.29 1.25-1.95 1.7-2.64 3.45-5.25 5.2-7.86z" fill="#006038"/>
<path transform="translate(854 688)" d="m0 0c1.74 0.0058 1.74 0.0058 3.52 0.0117 10.6 0.101 21.2 0.71 31.9 1.38 12 0.756 23.9 1.11 35.9 0.858 0.488 1.27 0.973 2.54 1.46 3.81 0.27 0.708 0.541 1.42 0.82 2.14 0.821 2.32 1.34 4.61 1.72 7.04h2v2h3v9c0.635 0.0553 1.27 0.111 1.92 0.168 2.9 0.254 5.8 0.512 8.7 0.77 0.999 0.087 2 0.174 3.03 0.264 4.82 0.431 9.58 0.897 14.3 1.8v2c0.99-0.33 1.98-0.66 3-1 2.69 0.438 2.69 0.438 5 1-0.99 0.33-1.98 0.66-3 1 3.27 3.42 5.41 4.14 10.1 4.68 1.01 0.123 2.03 0.246 3.07 0.373 2.14 0.253 4.28 0.503 6.41 0.75 1.02 0.124 2.03 0.249 3.08 0.377 0.93 0.109 1.86 0.218 2.82 0.33 2.5 0.48 4.33 1.23 6.53 2.49v2c-0.999-0.0116-2-0.0232-3.03-0.0352-1.29-0.00902-2.58-0.018-3.91-0.0273-1.29-0.0116-2.58-0.0232-3.9-0.0352-3.02-0.268-3.02-0.268-4.16 1.1 5.61 0.33 11.2 0.66 17 1v1c-3.15 0.0295-6.29 0.047-9.44 0.0625-0.878 0.00838-1.76 0.0168-2.66 0.0254-1.31 0.00483-1.31 0.00483-2.65 0.00977-0.791 0.00524-1.58 0.0105-2.4 0.0159-2.86-0.114-2.86-0.114-6.43-0.616-7.69-0.863-15.5-0.611-23.2-0.58-1.8 0.00356-3.6 0.00665-5.39 0.00929-3.86 0.00653-7.71 0.0161-11.6 0.0279-6.1 0.0183-12.2 0.0279-18.3 0.0359-17.3 0.0241-34.7 0.0601-52 0.105-9.58 0.0245-19.2 0.0419-28.8 0.0516-6.06 0.00655-12.1 0.0221-18.2 0.0443-3.77 0.0117-7.53 0.0151-11.3 0.0161-1.75 0.00215-3.5 0.00775-5.24 0.017-2.38 0.0122-4.76 0.012-7.15 0.00883-1.04 0.00976-1.04 0.00976-2.1 0.0197-3.59-0.0189-6.2-0.295-9.26-2.25 2.25-4.23 4.95-7.06 8.5-10.2 0.532-0.479 1.06-0.958 1.61-1.45 5.16-4.61 10.5-8.99 15.9-13.3 1.15-0.942 2.3-1.88 3.45-2.83 12.5-10.1 23-15.6 39.3-15.4z" fill="#006038"/>
<path transform="translate(1006,735)" d="m0 0c3.78-0.551 5.88-0.693 9.18 1.35 4.12 3.42 6.81 6.21 7.82 11.7v2c0.568 5.31 0.568 5.31 3 10-0.66 0.33-1.32 0.66-2 1 0.66 0.33 1.32 0.66 2 1 1.07 1.85 1.07 1.85 2.12 4.06 0.53 1.1 0.53 1.1 1.07 2.22 0.266 0.566 0.531 1.13 0.805 1.71v-5c3.36 2.24 3.19 2.43 4 6l2 1c-0.495-1.98-0.495-1.98-1-4 3.4 1.13 4.49 2.63 6.66 5.38 1.49 1.86 1.49 1.86 4.09 4.24 2.16 2.28 2.91 3.32 3.25 6.38 0.639 0.103 1.28 0.206 1.94 0.312 0.681 0.227 1.36 0.454 2.06 0.688 0.33 0.99 0.66 1.98 1 3 0.99 0.66 1.98 1.32 3 2v2h2v2h2c0.66 2.31 1.32 4.62 2 7h2v3h2c0.99 3.3 1.98 6.6 3 10h2c1.29 1.43 1.29 1.43 2.62 3.31 0.446 0.615 0.892 1.23 1.35 1.86 1.02 1.82 1.02 1.82 1.02 4.82h2c1.26 2.91 2 4.8 2 8h2v2h2c4 6.62 4 6.62 4 10h2c0.33 1.32 0.66 2.64 1 4h2c0.182 0.71 0.364 1.42 0.551 2.15 0.251 0.919 0.503 1.84 0.762 2.79 0.244 0.917 0.487 1.83 0.738 2.78 0.313 0.754 0.626 1.51 0.949 2.29 1.48 0.495 1.48 0.495 3 1 1.61 2.87 1.61 2.87 3.19 6.44 0.53 1.17 1.06 2.35 1.61 3.56 1.21 3 1.21 3 1.21 5h2c1.69 2.3 1.69 2.3 3.56 5.31 0.62 0.986 1.24 1.97 1.88 2.99 1.56 2.7 1.56 2.7 2.56 5.7h2v2h2v3h2c3 4.38 3 4.38 3 7h2v2h2c0.337 1.44 0.67 2.87 1 4.31 0.186 0.801 0.371 1.6 0.562 2.43 0.438 2.26 0.438 2.26 0.438 5.26h2c0.33 1.32 0.66 2.64 1 4h2v2h-3v3h2c3 3.46 3 3.46 3 6h4l2 1c0.633 2.07 0.633 2.07 1.12 4.56 0.168 0.826 0.335 1.65 0.508 2.5 0.121 0.638 0.242 1.28 0.367 1.93 0.619 0.0598 1.24 0.12 1.88 0.181 2.12 0.819 2.12 0.819 3.23 3.02 0.282 0.956 0.565 1.91 0.856 2.9 0.325 1.05 0.651 2.1 0.986 3.18 0.325 1.1 0.651 2.21 0.986 3.35 2.2 7.41 4.24 13.3 9.06 19.4 0.58 1.23 1.12 2.48 1.62 3.75 1.25 2.97 2.14 4.12 4.38 6.25v3h2c0.66 1.98 1.32 3.96 2 6-1.32-0.33-2.64-0.66-4-1-1.42 13.3-1.42 13.3 2 26-3.49-1.41-4.78-2.8-6.52-6.11-0.442-0.829-0.884-1.66-1.34-2.51-0.691-1.33-0.691-1.33-1.4-2.69-0.985-1.84-1.97-3.69-2.96-5.53-0.479-0.894-0.958-1.79-1.45-2.71-2.21-4.05-4.65-7.94-7.11-11.8-3-4.81-5.85-9.71-8.73-14.6-4.01-6.81-8.06-13.6-12.2-20.3-7.61-12.3-15-24.8-22.3-37.3-4.9-8.35-9.92-16.6-15.1-24.8-4.49-7.06-8.84-14.2-13.2-21.3-0.363-0.599-0.725-1.2-1.1-1.81-1.82-3-3.63-6-5.45-9-3.1-5.13-6.22-10.3-9.33-15.4-0.569-0.936-1.14-1.87-1.72-2.84-4.31-7.08-8.68-14.1-13.1-21.2-4.21-6.79-8.31-13.6-12.4-20.5-4.81-8.07-9.73-16-14.8-23.9-4.5-7-8.87-14.1-13.1-21.2-0.462-0.788-0.925-1.58-1.4-2.39-0.421-0.73-0.841-1.46-1.27-2.21-0.366-0.635-0.733-1.27-1.11-1.92-0.941-1.93-1.46-3.75-1.9-5.85 0.99 0.33 1.98 0.66 3 1v2h4v-2c-1.32-0.33-2.64-0.66-4-1 0.33-0.66 0.66-1.32 1-2z" fill="#006038"/>
<path transform="translate(539,797)" d="m0 0c8.57-0.286 8.57-0.286 12 2-0.99 1.32-1.98 2.64-3 4 1.32-0.33 2.64-0.66 4-1 0.562 1.94 0.562 1.94 1 4l-1 1c0.213 0.563 0.425 1.13 0.645 1.71 0.54 3.49-1.04 5.08-2.96 7.98-0.746 1.15-1.49 2.31-2.23 3.46-0.399 0.617-0.798 1.23-1.21 1.87-2.22 3.52-4.29 7.13-6.37 10.7-3.02 5.18-6.14 10.2-9.53 15.2-1.5 2.32-2.8 4.7-4.09 7.14-2.45 4.58-5.1 8.99-7.88 13.4-7.8 12.3-15.2 24.9-22.6 37.5-4.15 7.08-8.41 14.1-12.8 21.1-0.397 0.638-0.794 1.28-1.2 1.93-4.11 6.6-8.23 13.2-12.4 19.8-3.87 6.06-7.62 12.2-11.4 18.3-0.33-0.66-0.66-1.32-1-2h-5c0.6-3.68 1.25-7.35 2-11h-2c-0.103 0.639-0.206 1.28-0.312 1.94-0.227 0.681-0.454 1.36-0.688 2.06-0.99 0.33-1.98 0.66-3 1 0.186-0.578 0.371-1.15 0.562-1.75 0.478-2.46 0.195-3.89-0.562-6.25 0.99-0.33 1.98-0.66 3-1l1-2c1 2 1 2 1 3 0.66-0.99 1.32-1.98 2-3h3c-0.0619-0.701-0.124-1.4-0.188-2.12 0.23-3.53 1.48-5.81 3.19-8.88h2v-3l-1 2h-2v2c-1.32 0.33-2.64 0.66-4 1v-2h2c-0.33-0.66-0.66-1.32-1-2-0.33-0.99-0.66-1.98-1-3h2c0.495-3.96 0.495-3.96 1-8h2c0.0374-0.615 0.0748-1.23 0.113-1.86 0.0657-0.808 0.131-1.62 0.199-2.45 0.058-0.801 0.116-1.6 0.176-2.43 0.606-2.68 1.59-3.38 3.51-5.26 0.57-2.04 0.57-2.04 0.688-4.19 0.103-1.26 0.206-2.52 0.312-3.81h8v-4c0.66 0.33 1.32 0.66 2 1v3c1.65 0.33 3.3 0.66 5 1 0.66-1.65 1.32-3.3 2-5h2c-0.33-1.32-0.66-2.64-1-4-1.98 0.495-1.98 0.495-4 1v-8h2v-6c0.959-0.309 0.959-0.309 1.94-0.625 2.39-1.25 2.39-1.25 2.69-4.31 0.186-1.52 0.186-1.52 0.375-3.06 0.99-1.49 0.99-1.49 2-3 0.103-0.846 0.206-1.69 0.312-2.56 0.227-0.804 0.454-1.61 0.688-2.44 0.804-0.247 1.61-0.495 2.44-0.75 0.846-0.413 1.69-0.825 2.56-1.25 0.789-2.3 1.19-4.51 1.54-6.91 0.457-2.09 0.457-2.09 2.46-4.09 0.784-0.268 1.57-0.536 2.38-0.812 3.23-1.46 4.49-3.41 6.62-6.19 0.99-0.33 1.98-0.66 3-1l1-2h2c0.0825-1.28 0.165-2.56 0.25-3.88 0.266-2.22 0.266-2.22 0.75-4.12 2-1.31 2-1.31 4-2 0.33-0.99 0.66-1.98 1-3 2.06-0.688 2.06-0.688 4-1v-3h5v-2h-5v-3h9v2h2c-0.99-2.48-0.99-2.48-2-5h2c-0.99-2.48-0.99-2.48-2-5h5c-0.309-1.7-0.309-1.7-0.625-3.44-0.628-4.81 0.33-8.94 1.62-13.6z" fill="#006038"/>
<path transform="translate(815,480)" d="m0 0c3.5 1.88 3.5 1.88 5.22 3.05 2.03 1.26 2.03 1.26 5.78 0.945v2c0.619 0.268 1.24 0.536 1.88 0.812 2.12 1.19 2.12 1.19 4.12 4.19-1.32 0.33-2.64 0.66-4 1 0.99 0.33 1.98 0.66 3 1-0.99 0.495-0.99 0.495-2 1v2h2c3.26 5.55 6.17 11.2 9 17h3l2 1v-2h2c1.76 3.09 2 4.23 2 8h2c1.32 2.64 2.64 5.28 4 8h-5c-0.66-1.65-1.32-3.3-2-5 0 4.69 2.94 7.64 5.75 11.2 1.25 1.75 1.25 1.75 1.25 3.75h2l1 4h2v2h2c0.433 0.959 0.433 0.959 0.875 1.94 0.953 2.21 0.953 2.21 3.12 3.06 1.37 3.29 2 6.06 2.25 9.62 0.512 5.02 2.91 9.06 5.28 13.4 1.47 2.92 2.51 5.81 3.47 8.93h2v3c1.3-1.15 1.3-1.15 2-4 1.49 0.99 1.49 0.99 3 2v2h2c1.19 5.38 2.29 10.5 2 16h6v3h2v5h2v2c1.65 0.33 3.3 0.66 5 1v3h2c0.504 1.94 1 3.87 1.5 5.81 0.278 1.08 0.557 2.16 0.844 3.27 0.656 2.92 0.656 2.92 0.656 5.92-1.32-0.33-2.64-0.66-4-1-0.495-4.45-0.495-4.45-1-9h-2c0.182 0.565 0.364 1.13 0.551 1.71 0.819 2.55 1.63 5.11 2.45 7.66 0.286 0.889 0.572 1.78 0.867 2.7 0.271 0.851 0.541 1.7 0.82 2.58 0.251 0.786 0.503 1.57 0.762 2.38 0.551 1.97 0.551 1.97 0.551 3.97h2c0.33 2.64 0.66 5.28 1 8 1.32 0.33 2.64 0.66 4 1-0.33 0.578-0.66 1.15-1 1.75-2.79 6.29 0.941 14.1 3 20.2 1.25 2.78 2.58 5.44 4.05 8.11 0.953 1.89 0.953 1.89 0.953 3.89h-2c-0.27-0.526-0.541-1.05-0.819-1.59-6.07-11.8-12.4-23.4-19-34.9-3.49-6.06-6.9-12.2-10.3-18.3-3.88-6.96-7.8-13.9-11.9-20.8-9.34-15.7-18.1-31.8-26.8-47.8-3.14-5.76-6.31-11.5-9.55-17.2-2.38-4.21-4.73-8.43-7.07-12.7-6.72-12.2-13.5-24.3-20.7-36.2-0.764-1.27-0.764-1.27-1.54-2.57-0.449-0.739-0.898-1.48-1.36-2.24-0.955-1.82-0.955-1.82-0.955-3.82h4c-0.66-0.99-1.32-1.98-2-3 1.56-1.25 1.56-1.25 4-2z" fill="#006038"/>
<path transform="translate(733,591)" d="m0 0c0.33 0.66 0.66 1.32 1 2h-2v2c1.32-0.66 2.64-1.32 4-2-1.37 3.66-3.02 6.96-4.98 10.3-0.598 1.03-1.2 2.07-1.81 3.13-0.644 1.1-1.29 2.21-1.95 3.35-0.675 1.16-1.35 2.33-2.02 3.49-1.73 2.99-3.47 5.98-5.21 8.96-1.57 2.69-3.13 5.39-4.7 8.08-5.92 10.2-11.9 20.3-18 30.4-3.85 6.4-7.61 12.8-11.3 19.3-3.3 5.73-6.64 11.4-10 17.1-2.57 4.36-5.12 8.72-7.67 13.1-0.634 1.09-1.27 2.18-1.92 3.3-1.26 2.16-2.51 4.32-3.77 6.48-0.574 0.986-1.15 1.97-1.74 2.99-0.512 0.882-1.02 1.76-1.55 2.67-1.07 1.79-2.2 3.54-3.35 5.27-3.09 0.73-3.09 0.73-6.94 1.19-1.25 0.159-2.49 0.317-3.78 0.48-10.2 0.953-20.6 0.145-30.9-0.4-1.02-0.0483-2.03-0.0967-3.08-0.146-0.909-0.0471-1.82-0.0943-2.76-0.143-2.7 0.0226-5 0.269-7.6 1.02-1.14 2.3-1.14 2.3-2 5-1.29 1.7-2.61 3.38-4 5-0.0891-3.83 0.121-7.27 1-11h3c-0.33-0.66-0.66-1.32-1-2-0.99-0.33-1.98-0.66-3-1v6c-1.32-0.33-2.64-0.66-4-1v-2h3c-0.495-0.454-0.99-0.908-1.5-1.38-1.5-1.62-1.5-1.62-1.5-3.62h3c-0.124-0.722-0.247-1.44-0.375-2.19 0.375-2.81 0.375-2.81 2.81-5.44 3.82-2.88 8.02-4.07 12.6-5.38 0.932-0.345 1.86-0.691 2.82-1.05 3.57-1.07 6.77-1.33 10.5-1.52 5.6-0.309 11.1-0.754 16.7-1.44 0.206-0.763 0.413-1.53 0.625-2.31 1.38-2.69 1.38-2.69 4.44-4.19 3.19-1.19 3.19-1.19 3.81-4.19 0.0412-0.763 0.0825-1.53 0.125-2.31h2c0.33 1.65 0.66 3.3 1 5h2v-5c0.99-0.33 1.98-0.66 3-1v-3h5c0.815-4.65 1.43-9.31 2-14h3v-2c1.38-1.62 1.38-1.62 3-3h2v-3c0.66-0.33 1.32-0.66 2-1 0.652-2.02 0.652-2.02 1-4h2c0.66 0.66 1.32 1.32 2 2 0.33-0.66 0.66-1.32 1-2 0.99-0.33 1.98-0.66 3-1 0.495-1.49 0.495-1.49 1-3 5.22-3 5.22-3 8-3 0.144-0.949 0.289-1.9 0.438-2.88 0.562-3.12 0.562-3.12 1.56-5.12h2c0.33-1.32 0.66-2.64 1-4h3c1.17-3.98 2.23-7.92 3-12 0.325-1.34 0.655-2.67 1-4h2v-4c1.64-1.37 3.31-2.7 5-4 2.62-3.73 4.27-7.8 6-12h2c0.103-0.639 0.206-1.28 0.312-1.94 0.227-0.681 0.454-1.36 0.688-2.06 0.99-0.33 1.98-0.66 3-1 1.32-1.92 1.32-1.92 2.44-4.25 4.65-8.79 4.65-8.79 8.56-10.8z" fill="#006038"/>
<path transform="translate(908,1041)" d="m0 0c2.28 3.71 2.66 7.61 3.18 11.9 0.101 0.773 0.202 1.55 0.306 2.34 0.323 2.48 0.636 4.95 0.948 7.43 0.411 3.22 0.827 6.44 1.25 9.66 0.155 1.19 0.155 1.19 0.313 2.41 1.12 8.47 2.54 16.9 4 25.3-5.09 1.75-8.66 2.27-14 2-1.72-1.72-1.42-4.11-1.65-6.46-0.119-1.11-0.237-2.22-0.359-3.37-0.244-2.36-0.481-4.71-0.711-7.07-0.182-1.67-0.182-1.67-0.367-3.38-0.104-1.03-0.207-2.05-0.314-3.11-0.649-2.83-1.35-3.84-3.6-5.62-1.79 15.5-1.79 15.5-2 31-3.43 1.55-6.05 2.24-9.81 2.12-0.79-0.018-1.58-0.0361-2.39-0.0547-0.592-0.0232-1.18-0.0464-1.79-0.0703-0.173-0.501-0.345-1-0.523-1.52-2.72-7.32-6.34-14.1-10-21-0.428-0.798-0.856-1.6-1.3-2.42-0.388-0.717-0.776-1.43-1.18-2.17-0.968-1.93-0.968-1.93-1.97-4.93 0.715 11.4 1.83 22.7 3 34-5.72 2-5.72 2-8.25 2-2.8-1.6-2.89-3.97-3.75-7-0.449-2.53-0.845-5.03-1.18-7.57-0.101-0.715-0.202-1.43-0.306-2.17-0.428-3.03-0.842-6.06-1.26-9.09-0.307-2.23-0.62-4.45-0.936-6.68-0.102-0.724-0.205-1.45-0.31-2.19-0.829-5.62-2.06-11.1-3.54-16.6-0.513-2.98-0.464-4.87 0.531-7.72 3.31-1.75 3.31-1.75 7-3 0.66-0.227 1.32-0.454 2-0.688 3-0.469 5.97-0.371 9-0.312 3.51 6.79 6.8 13.6 9.88 20.6 0.31 0.699 0.62 1.4 0.94 2.12 2.19 5.01 2.19 5.01 2.19 7.26h2v2h2c0.0374-0.862 0.0748-1.72 0.113-2.61 0.409-7.59 1.12-15.1 2.2-22.6 0.105-0.822 0.211-1.64 0.32-2.49 0.874-5.74 0.874-5.74 3.27-8.26 5.31-2.52 11.3-2.1 17.1-2z" fill="#3E3C39"/>
<path transform="translate(847 700)" d="m0 0c0.901 0.00902 1.8 0.018 2.73 0.0273 0.687 0.0116 1.37 0.0232 2.08 0.0352v1c-4.46 0.495-4.46 0.495-9 1v2h1.7 20.3v-2c13.2-0.485 24.1 1.06 36 7v5c-0.495-0.99-0.495-0.99-1-2h-2v-3h-2v5h-2v4l-1 1c0.409 2.05 0.409 2.05 1 4-4.71 2.89-10.1 2.84-15.5 3.44-3.08 0.491-4.86 1.11-7.53 2.56h-3v2h-19v2c-7.75 0.0464-15.5 0.0819-23.3 0.104-3.6 0.0104-7.2 0.0246-10.8 0.0473-3.48 0.0217-6.95 0.0337-10.4 0.0389-1.97 0.00549-3.94 0.0211-5.91 0.0368-1.2 1.51e-4 -2.4 3.02e-4 -3.64 4.58e-4 -1.06 0.00444-2.11 0.00888-3.2 0.0135-2.77-0.241-4.41-0.815-6.76-2.24 2.25-4.23 4.95-7.06 8.5-10.2 0.525-0.474 1.05-0.948 1.59-1.44 5.16-4.61 10.5-9 15.9-13.3 0.929-0.744 1.86-1.49 2.82-2.25 0.721-0.576 1.44-1.15 2.18-1.75 0.66 0.33 1.32 0.66 2 1 1.7 0.226 3.41 0.409 5.12 0.562 1.37 0.126 1.37 0.126 2.76 0.254 0.699 0.0606 1.4 0.121 2.12 0.184v-2c0.759-0.0606 1.52-0.121 2.3-0.184 0.994-0.0838 1.99-0.168 3.01-0.254 0.986-0.0812 1.97-0.162 2.99-0.246 3.83-0.448 6.97-1.43 10.9-1.38z" fill="#006339"/>
<path transform="translate(945 1031)" d="m0 0c6.25 2.23 9.95 8.81 13.7 14 0.989 1.3 1.98 2.6 2.98 3.9 2.54 3.33 5.04 6.68 7.52 10.1 1.53 2.08 3.07 4.15 4.61 6.23 0.989 1.34 1.98 2.67 2.96 4.01 0.453 0.611 0.906 1.22 1.37 1.85 6.56 8.94 6.56 8.94 6.56 13-4.72 1.6-8.22 2.73-13 1-2.31-2.12-4.29-4.37-6-7v-2c-8.29 1.09-15.4 3.53-23 7 0.0206 0.82 0.0412 1.64 0.0625 2.48-0.165 8.61-0.165 8.61-2.73 11.2-3.65 1.87-7.2 2.94-11.3 2.31-1.82-1.82-1.15-4.62-1.15-7.07 0.0537-7.32 0.592-14.6 1.32-21.8 0.203-2.03 0.395-4.06 0.586-6.09 0.318-3.34 0.668-6.67 1.03-10 0.215-2.06 0.399-4.12 0.582-6.18 0.138-1.34 0.277-2.68 0.417-4.02 0.169-1.78 0.169-1.78 0.342-3.6 1.82-6.73 6.47-9.56 13.1-9.18z" fill="#3F3C39"/>
<path transform="translate(839,1050)" d="m0 0c0.99 0.66 1.98 1.32 3 2h-2c-0.231 0.735-0.461 1.47-0.699 2.23-1.55 3.3-3.32 4.83-6.11 7.15-4.16 3.59-7.24 7.01-10.2 11.6 4.02 8.52 9.37 15.8 15.1 23.3 3.11 4.11 5.85 8.01 7.94 12.7-2.67 1.34-4.83 1.24-7.81 1.31-1.04 0.0374-2.08 0.0748-3.14 0.113-3.97-0.555-5.24-1.55-8.04-4.43-2.74-3.78-5.17-7.75-7.63-11.7-0.759-1.19-0.759-1.19-1.53-2.4-0.45-0.723-0.9-1.45-1.36-2.19-1.74-2.01-2.88-2.34-5.48-2.7-0.819 1.25-1.63 2.5-2.44 3.75-0.452 0.696-0.905 1.39-1.37 2.11-1.18 2.11-1.85 3.75-2.19 6.14 0.33 0.99 0.66 1.98 1 3 0.068 1.73 0.085 3.46 0.0625 5.19-0.00902 0.901-0.018 1.8-0.0273 2.73-0.0116 0.687-0.0232 1.37-0.0352 2.08-2.1 0.054-4.21 0.0928-6.31 0.125-1.17 0.0232-2.34 0.0464-3.55 0.0703-3.14-0.195-3.14-0.195-6.14-2.2-0.34-2.53-0.489-4.83-0.512-7.37-0.0181-0.743-0.0363-1.49-0.0549-2.25-0.0551-2.42-0.0888-4.84-0.121-7.26-0.0307-1.65-0.0623-3.3-0.0947-4.95-0.0609-3.25-0.112-6.5-0.155-9.74-0.0494-3.72-0.131-7.44-0.223-11.2-0.0317-1.78-0.0619-3.55-0.0898-5.33-0.0215-0.788-0.043-1.58-0.0652-2.39-0.0176-2.92-0.00201-5.03 1.55-7.56 2.34-1.31 3.69-1.17 6.33-0.805 0.785 0.0967 1.57 0.193 2.38 0.293 2.06 0.52 2.06 0.52 4.06 2.52 0.227 1.97 0.227 1.97 0.195 4.35-0.00967 1.28-0.00967 1.28-0.0195 2.58-0.0168 0.889-0.0335 1.78-0.0508 2.7-0.00902 0.897-0.018 1.79-0.0273 2.72-0.0236 2.22-0.0565 4.44-0.0977 6.66 3.63-2.01 6.36-4.16 9.21-7.16 0.769-0.793 1.54-1.59 2.33-2.4 1.6-1.67 3.19-3.33 4.77-5.01 1.16-1.19 1.16-1.19 2.33-2.4 1.04-1.09 1.04-1.09 2.09-2.2 4.59-3.73 9.48-4.27 15.3-3.83z" fill="#3F3C39"/>
<path transform="translate(1010 1e3)" d="m0 0c3.76 1.25 4.07 2.34 6 5.71 0.571 0.988 1.14 1.98 1.73 2.99 0.603 1.07 1.21 2.13 1.83 3.23 0.621 1.08 1.24 2.17 1.88 3.28 1.86 3.25 3.71 6.52 5.56 9.78 1 1.75 2 3.5 3 5.25 9.67 17 9.67 17 11 22.8-0.33 0.99-0.66 1.98-1 3-3.68 1.62-8.07 1.13-12 1-2.53-1.26-2.74-2.23-3.88-4.78-0.345-0.759-0.691-1.52-1.05-2.3-0.719-1.61-1.44-3.22-2.16-4.84-0.345-0.759-0.691-1.52-1.05-2.3-0.312-0.701-0.624-1.4-0.945-2.12-0.829-1.84-0.829-1.84-2.93-2.66-2.83 1.12-5.42 2.74-8.06 4.25-0.746 0.409-1.49 0.817-2.26 1.24-0.71 0.401-1.42 0.802-2.15 1.21-0.652 0.368-1.3 0.735-1.98 1.11-1.87 1.19-1.87 1.19-2.55 4.18 0.788 2.02 0.788 2.02 2.09 4.09 0.682 1.18 0.682 1.18 1.38 2.38 0.485 0.815 0.971 1.63 1.47 2.47 0.954 1.61 1.9 3.22 2.84 4.84 0.425 0.714 0.851 1.43 1.29 2.16 0.934 2.06 0.934 2.06 0.934 6.06-6.11 3.96-6.11 3.96-9.43 4.12-4.13-1.8-5.44-5.26-7.51-9.12-0.459-0.826-0.919-1.65-1.39-2.5-1.01-1.82-2.02-3.65-3.02-5.48-1.78-3.25-3.59-6.47-5.41-9.7-2.46-4.37-4.92-8.74-7.37-13.1-0.506-0.905-1.01-1.81-1.53-2.74-3.36-6.14-3.36-6.14-3.2-8.53 1.13-2.51 2.39-3.28 4.74-4.67 0.699-0.428 1.4-0.856 2.12-1.3 2.01-0.953 2.01-0.953 5.01-0.953 0.638 1.14 1.28 2.29 1.93 3.46 0.835 1.49 1.67 2.98 2.5 4.47 0.631 1.13 0.631 1.13 1.28 2.29 0.403 0.719 0.806 1.44 1.22 2.18 0.372 0.665 0.744 1.33 1.13 2.02 0.843 1.57 0.843 1.57 1.94 2.58 6.15-0.134 10.4-2.65 15.6-5.72 2.36-1.28 2.36-1.28 4.36-1.28-0.387-0.701-0.773-1.4-1.17-2.12-1.08-1.97-2.15-3.94-3.22-5.91-0.967-1.78-1.95-3.55-2.97-5.3-1.67-2.99-2.74-4.96-2.27-8.41 2.15-2.98 4.39-4.53 7.62-6.25z" fill="#3F3C39"/>
<path transform="translate(594 1013)" d="m0 0c4.15 1.55 6.12 2.77 8.69 6.38-0.334 3.25-0.334 3.25-1 7-0.232 2.28-0.448 4.56-0.648 6.84-0.117 1.3-0.234 2.6-0.354 3.94-0.0607 0.679-0.121 1.36-0.184 2.06-1.29 14.4-2.88 28.8-4.81 43.2-10.7-3.22-10.7-3.22-13-6-0.355-3.25-0.355-3.25-0.188-7 0.259-5.09 0.259-5.09-0.812-10-1.98-0.729-3.99-1.38-6-2-0.857-0.454-1.71-0.908-2.6-1.38-5.02-2.92-5.02-2.92-10.6-3.16-2.52 1.42-4.5 3.13-6.34 5.35-1.5 1.19-1.5 1.19-4.81 1.06-3.62-0.858-6.46-2.06-9.69-3.88 3.34-8.06 12.6-13.6 19.3-18.8 3.07-2.46 6.07-4.99 9.07-7.53 0.542-0.461 1.08-0.921 1.64-1.4 1.1-0.936 2.21-1.87 3.31-2.81 2.78-2.36 5.57-4.7 8.36-7.04 0.973-0.817 1.95-1.63 2.95-2.48 3.75-3.01 3.75-3.01 7.68-2.27z" fill="#3F3C39"/>
<path transform="translate(708 1043)" d="m0 0c0.794 0.0889 1.59 0.178 2.41 0.27 1.19 0.114 1.19 0.114 2.41 0.23 2.09 0.582 2.09 0.582 4.09 3.58 0.135 2.27 0.135 2.27-0.0234 4.89-0.0516 0.938-0.103 1.88-0.156 2.84-0.0645 0.976-0.129 1.95-0.195 2.96-0.0567 0.988-0.113 1.98-0.172 2.99-0.141 2.44-0.293 4.88-0.453 7.32 4.8 0.9 9.51 1.29 14.4 1.56 1.1 0.0648 1.1 0.0648 2.23 0.131 1.8 0.105 3.6 0.206 5.39 0.307 0.0449-0.56 0.0898-1.12 0.136-1.7 0.212-2.54 0.444-5.08 0.677-7.62 0.0703-0.881 0.141-1.76 0.213-2.67 0.0806-0.848 0.161-1.7 0.244-2.57 0.102-1.17 0.102-1.17 0.206-2.36 0.633-2.52 1.49-3.5 3.52-5.08 2.87-0.206 5.14 0.401 8 1 4.8 9.61-0.00458 29.2-2.52 38.9-0.89 4-1.22 8.07-1.6 12.1-0.0864 0.87-0.173 1.74-0.262 2.64-0.21 2.12-0.412 4.24-0.613 6.36-2.15 0.0269-4.29 0.0463-6.44 0.0625-1.19 0.0116-2.39 0.0232-3.62 0.0352-2.94-0.0977-2.94-0.0977-3.94-1.1 0.0929-2.13 0.251-4.25 0.438-6.38 0.498-6.23 0.677-12.4 0.562-18.6-6.82-1.68-12.9-2.35-20-3-0.99 7.92-1.98 15.8-3 24h-12c-2-2-2-2-2.12-4.41 0.75-9.94 2.36-19.7 4.07-29.5 0.684-3.93 1.32-7.86 1.91-11.8 0.13-0.876 0.261-1.75 0.395-2.66 0.242-1.64 0.477-3.29 0.706-4.93 1.14-7.64 1.14-7.64 5.13-7.79z" fill="#3F3C39"/>
<path transform="translate(986,1173)" d="m0 0 1 4c1.32 0.33 2.64 0.66 4 1v3c1.32 0.33 2.64 0.66 4 1v2c1.39-0.0619 1.39-0.0619 2.81-0.125 3.19 0.125 3.19 0.125 6.19 2.12v2c0.598 0.144 1.2 0.289 1.81 0.438 1.75 0.45 3.47 0.991 5.19 1.56v3c-1.49 0.495-1.49 0.495-3 1 0.99 0.33 1.98 0.66 3 1 0.495 1.48 0.495 1.48 1 3 3.54 1.82 7.08 2.45 11 3v1c-0.549 0.141-1.1 0.282-1.66 0.427-2.51 0.646-5.02 1.3-7.52 1.95-0.864 0.222-1.73 0.443-2.62 0.672-0.841 0.219-1.68 0.438-2.55 0.664-0.77 0.199-1.54 0.398-2.33 0.603-2.36 0.66-2.36 0.66-4.77 1.69-2.61 1.03-5.13 1.69-7.88 2.3-1.03 0.234-2.07 0.468-3.14 0.708-1.1 0.246-2.21 0.491-3.34 0.745-10.3 2.31-20.5 4.77-30.6 7.42-1.41 0.36-1.41 0.36-2.84 0.728-1.23 0.32-1.23 0.32-2.48 0.646-2.24 0.456-2.24 0.456-6.24 0.456v-3c3.41-2.51 6.97-3.78 11-5v-2h3v-2h2v-3c1.49-0.495 1.49-0.495 3-1-0.33-0.66-0.66-1.32-1-2 0.33-0.66 0.66-1.32 1-2h2v-2c-0.99-0.33-1.98-0.66-3-1 0.33-0.66 0.66-1.32 1-2h2v-2h2v-6h5v-3h3v3h6v-6h-4v-4c1.98-0.66 3.96-1.32 6-2v-2c0.66-0.33 1.32-0.66 2-1z" fill="#006038"/>
<path transform="translate(628 1027)" d="m0 0c0.785 0.00516 1.57 0.0103 2.38 0.0156 1.17-0.00773 1.17-0.00773 2.37-0.0156 2.19 0.266 2.19 0.266 5.19 2.27-0.526 7.59-2.46 14.2-4.88 21.4-1.38 4.19-2.75 8.37-4.12 12.6-0.476 1.42-0.476 1.42-0.962 2.87-0.283 0.879-0.567 1.76-0.858 2.66-0.253 0.768-0.506 1.54-0.766 2.33-0.483 2.5-0.473 3.82 0.586 6.14 1.9 1.21 1.9 1.21 4.3 1.96 0.877 0.325 1.75 0.651 2.66 0.986 0.923 0.325 1.85 0.651 2.8 0.986 6.22 2.21 11 3.9 15.2 9.06-0.562 1.94-0.562 1.94-2 4-6.04 2.15-11 0.00996-16.9-1.96-2.39-0.793-4.68-1.45-7.13-1.98-3.72-0.912-7.32-2.11-10.9-3.38-1.12-0.388-2.25-0.776-3.4-1.18-2.66-1.51-2.66-1.51-3.48-3.61-0.25-3.93 0.907-7.12 2.2-10.8 0.258-0.759 0.517-1.52 0.783-2.3 0.828-2.43 1.67-4.85 2.52-7.27 1.09-3.16 2.18-6.33 3.26-9.5 0.265-0.769 0.53-1.54 0.803-2.33 2.05-5.99 3.79-12 5.4-18.1 0.982-3.02 1.63-4.45 4.91-4.87z" fill="#3F3C39"/>
<path transform="translate(771 1049)" d="m0 0c0.889 0.0967 1.78 0.193 2.7 0.293 0.719 0.171 1.44 0.343 2.18 0.52 2.12 4.24 1.41 9.75 1.56 14.4 0.0671 2.06 0.145 4.12 0.224 6.18 0.0438 1.29 0.0877 2.59 0.133 3.92 0.0408 1.19 0.0815 2.38 0.124 3.61-0.0376 2.86-0.0376 2.86-1.04 4.86-0.154 2.1-0.25 4.21-0.316 6.32-0.0419 1.26-0.0838 2.51-0.127 3.81-0.0393 1.32-0.0786 2.64-0.119 4-0.0432 1.34-0.0868 2.68-0.131 4.02-0.106 3.29-0.208 6.57-0.307 9.86-2.31-0.14-4.63-0.287-6.94-0.438-1.29-0.0812-2.58-0.162-3.9-0.246-3.16-0.316-3.16-0.316-4.16-1.32-0.0295-2.51 0.00531-4.98 0.0859-7.49 0.0208-0.767 0.0416-1.53 0.063-2.32 0.0696-2.5 0.147-5 0.226-7.5 0.0516-1.7 0.103-3.4 0.155-5.1 0.103-3.35 0.211-6.69 0.322-10 0.125-3.78 0.232-7.57 0.336-11.4 0.0609-1.77 0.123-3.55 0.188-5.32 0.0185-0.784 0.0371-1.57 0.0562-2.38 0.124-2.86 0.281-5.03 1.79-7.5 2.48-1.39 4.11-1.16 6.91-0.809z" fill="#3F3C39"/>
<path transform="translate(557,1194)" d="m0 0c6.93 0.495 6.93 0.495 14 1v2c0.99-0.33 1.98-0.66 3-1 0.99 1.48 0.99 1.48 2 3 7 2.51 14.1 3.28 21.5 3.04 3.59-0.0555 6.98 0.426 10.5 0.961v2c2 0.294 4 0.585 6 0.875 1.27 0.184 2.53 0.369 3.84 0.559 2.82 0.397 5.64 0.738 8.48 1.04 0.708 0.0781 1.42 0.156 2.15 0.237 2.01 0.219 4.03 0.425 6.04 0.63 5.01 0.946 8.04 3.04 11.5 6.66 2.96 1.48 5.84 1.35 9.12 1.56 1.28 0.0838 2.56 0.168 3.88 0.254 0.987 0.0606 1.97 0.121 2.99 0.184 0.33-0.66 0.66-1.32 1-2 1.98 0.422 3.96 0.863 5.94 1.31 1.1 0.244 2.2 0.487 3.34 0.738 0.898 0.313 1.8 0.626 2.72 0.949 0.495 1.48 0.495 1.48 1 3 1.84 0.833 1.84 0.833 4.11 1.28 1.25 0.304 1.25 0.304 2.53 0.613 1.32 0.3 1.32 0.3 2.67 0.605 1.73 0.398 3.45 0.804 5.18 1.22 0.769 0.175 1.54 0.349 2.33 0.529 2.48 0.856 4.17 2.09 6.18 3.75-11.3-0.414-22-1.87-33-4.19-1.53-0.314-3.06-0.627-4.6-0.94-11.8-2.43-23.4-5.22-35-8.26-3.12-0.789-6.26-1.47-9.41-2.16-4.58-1.03-9.06-2.41-13.6-3.74-1.81-0.53-3.62-1.06-5.43-1.58-13.8-4-27.5-8.11-41-13.1v-1z" fill="#006038"/>
<path transform="translate(1161,835)" d="m0 0c11.8 14.5 21.6 30.5 31.4 46.3 3.73 5.98 7.62 11.8 11.6 17.7 7.07 10.5 13.9 21.1 20.6 31.8 6.63 10.5 13.5 20.9 20.4 31.2-0.33 0.66-0.66 1.32-1 2-0.227-0.639-0.454-1.28-0.688-1.94-1.17-2.33-1.17-2.33-3.94-2.81-0.784-0.0825-1.57-0.165-2.38-0.25-0.33-0.99-0.66-1.98-1-3h-2c-0.402-1.45-0.402-1.45-0.812-2.94-0.392-1.01-0.784-2.02-1.19-3.06-1.48-0.495-1.48-0.495-3-1-2.08-2.92-3-4.38-3-8-1.48-0.495-1.48-0.495-3-1v-5c-0.99-0.495-0.99-0.495-2-1-0.33-0.99-0.66-1.98-1-3-1.65-1.69-3.31-3.35-5-5-2-3-2-3-2-6-0.99-0.33-1.98-0.66-3-1-0.0619-0.99-0.124-1.98-0.188-3-0.683-4.77-3.1-8.12-5.81-12-0.429-0.657-0.859-1.31-1.3-1.99-2.28-3.4-4.02-5.3-7.7-7.01-0.562-1.88-0.562-1.88-1-4-1.49-2.21-1.49-2.21-3-4l-2 1c-0.433-0.639-0.866-1.28-1.31-1.94-1.6-2.33-1.6-2.33-4.69-3.06-0.357-1.33-0.683-2.66-1-4-0.638-1.2-1.31-2.39-2-3.56-2-3.44-2-3.44-3-6.44-0.66-0.33-1.32-0.66-2-1 1.48-0.495 1.48-0.495 3-1-0.33-1.32-0.66-2.64-1-4-0.99 0.33-1.98 0.66-3 1-0.33-0.99-0.66-1.98-1-3-0.619-0.598-1.24-1.2-1.88-1.81-5.04-5.19-6.03-11.3-7.12-18.2h-2c-0.66-1.65-1.32-3.3-2-5 0.33-0.33 0.66-0.66 1-1z" fill="#006038"/>
<path transform="translate(1252,1040)" d="m0 0c2.31 0.33 4.62 0.66 7 1-0.33 1.32-0.66 2.64-1 4 3.97 1.98 6.45 2.13 10.8 1.06 1.05-0.351 2.1-0.701 3.19-1.06 0.495 0.99 0.495 0.99 1 2 0.66 0.33 1.32 0.66 2 1-1.89 1.94-3.79 3.88-5.69 5.81-0.53 0.547-1.06 1.09-1.61 1.66-3 3.04-5.81 5.64-9.71 7.53-3 0-3 0-6-1-0.33 0.66-0.66 1.32-1 2-0.99 0.33-1.98 0.66-3 1-0.66-0.99-1.32-1.98-2-3h-2v2h-2v-8h-2c-0.33-1.98-0.66-3.96-1-6h4c0.155-1.14 0.155-1.14 0.312-2.31 0.749-2.93 1.2-4 3.69-5.69 2.69-0.188 2.69-0.188 5 0v-2z" fill="#006038"/>
<path transform="translate(682 1072)" d="m0 0c4.6 1.32 4.6 1.32 6.45 2.39 0.805 2.13 1 3.73 1 6 0.66-0.66 1.32-1.32 2-2-0.875 5.88-0.875 5.88-2 7-8.05 0.519-16.2-0.445-23-5-0.536-3.52-0.38-5.36 1.44-8.44 4.61-2.81 9.11-1.15 14.1 0.0469z" fill="#3E3D39"/>
<path transform="translate(805,292)" d="m0 0c5.66 4.14 9.17 9.17 13 15-0.33 0.66-0.66 1.32-1 2-0.33-0.99-0.66-1.98-1-3-1.12 0.0954-2.24 0.191-3.39 0.289-1.47 0.113-2.95 0.225-4.42 0.336-0.738 0.0645-1.48 0.129-2.24 0.195-5.61 0.406-5.61 0.406-8.95-1.82 0.403-5.64 2.22-8.03 6-12l2-1z" fill="#006038"/>
<path transform="translate(586,1031)" d="m0 0c0.99 0.66 1.98 1.32 3 2-0.66 5.28-1.32 10.6-2 16-6.72-0.959-8.7-1.65-14-5 2.64-5.45 7.56-10.3 13-13z" fill="#FDFDFD"/>
<path transform="translate(491,1165)" d="m0 0c5.45 0.389 9.18 1.38 14 3.98 2 1.01 3.89 1.65 6.04 2.27 4.68 1.48 8.99 3.58 13.4 5.75 0.703 0.345 1.41 0.689 2.13 1.04 3.34 1.68 5.9 3.31 8.5 5.96 2.26 1.2 2.26 1.2 4.69 2.19 0.808 0.344 1.62 0.688 2.45 1.04 0.922 0.381 0.922 0.381 1.86 0.77-4.01 1.34-5.27 0.251-9.07-1.5-0.597-0.271-1.19-0.542-1.81-0.822-1.94-0.884-3.87-1.78-5.8-2.68-1.32-0.607-2.65-1.21-3.97-1.82-1.97-0.899-3.94-1.8-5.9-2.7-6.1-2.8-12.3-5.43-18.5-8.02-3.04-1.5-5.41-3.25-7.97-5.46z" fill="#006038"/>
<path transform="translate(944,1051)" d="m0 0c3.81 1.55 6.02 3.9 8.75 6.94 1.2 1.31 1.2 1.31 2.42 2.65 1.83 2.41 1.83 2.41 1.83 5.41-4.5 1.76-8.18 2.19-13 2-0.837-3.64-1.14-7.02-1.12-10.8-0.00258-0.964-0.00516-1.93-0.00781-2.92 0.133-2.33 0.133-2.33 1.13-3.33z" fill="#FDFDFD"/>
<path transform="translate(755,555)" d="m0 0h3c-1.74 4.85-4.24 9.21-6.75 13.7-0.445 0.797-0.89 1.59-1.35 2.42-3.19 5.7-6.47 11.3-9.9 16.9-0.15-0.61-0.299-1.22-0.453-1.85-0.392-1.54-0.829-3.07-1.3-4.59-0.25-2.56-0.25-2.56 0.875-5.31 1.88-2.25 1.88-2.25 4.56-3.06 0.763-0.0619 1.53-0.124 2.31-0.188 0.66-1.98 1.32-3.96 2-6h2c0.33-2.64 0.66-5.28 1-8h2c0.66-1.32 1.32-2.64 2-4z" fill="#006038"/>
<path transform="translate(721,1230)" d="m0 0c1.76 0.417 3.53 0.793 5.31 1.12 0.883 0.168 1.77 0.335 2.68 0.508 0.664 0.121 1.33 0.242 2.01 0.367v1c-7.16 0.179-14-0.507-21.1-1.5-1.06-0.143-2.11-0.286-3.2-0.434-2.58-0.35-5.16-0.706-7.74-1.07v-1c7.51-1.62 14.9-2.02 22 1z" fill="#006038"/>
<path transform="translate(1257,982)" d="m0 0c3.88 3.61 6.39 8.1 9.19 12.6 0.559 0.876 1.12 1.75 1.69 2.65 0.528 0.837 1.06 1.67 1.6 2.54 0.484 0.766 0.967 1.53 1.47 2.32 1.05 1.92 1.05 1.92 1.05 3.92l-4-2v-2c-0.99-0.33-1.98-0.66-3-1-2.22-3.7-3-5.63-3-10-0.99-0.33-1.98-0.66-3-1-0.73-1.85-0.73-1.85-1.19-4.06-0.159-0.733-0.317-1.47-0.48-2.22-0.11-0.566-0.219-1.13-0.332-1.71z" fill="#006038"/>
<path transform="translate(790,724)" d="m0 0h3c0.66 1.98 1.32 3.96 2 6 2.31 0.33 4.62 0.66 7 1-3.23 2.15-4.21 2.27-7.94 2.25-0.855 0.00516-1.71 0.0103-2.59 0.0156-2.59-0.278-4.24-0.959-6.47-2.27 1.52-2.63 2.84-4.84 5-7z" fill="#006038"/>
<path transform="translate(787,494)" d="m0 0c1.88 0.312 1.88 0.312 4 1 0.66 0.99 1.32 1.98 2 3-1.25 2-1.25 2-3 4h-4c-0.33-1.98-0.66-3.96-1-6h2v-2z" fill="#006038"/>
<path transform="translate(769,528)" d="m0 0c1.32 0.66 2.64 1.32 4 2-1.33 3.59-2.96 6.75-5 10-0.33-0.66-0.66-1.32-1-2-0.66-0.33-1.32-0.66-2-1 0.712-1.11 0.712-1.11 1.44-2.25 1.34-2.36 2.07-4.12 2.56-6.75z" fill="#006038"/>
<path transform="translate(1118,770)" d="m0 0c4.2 3.72 7 8.32 10 13-0.33 0.66-0.66 1.32-1 2-1.32-0.33-2.64-0.66-4-1-0.0825-0.701-0.165-1.4-0.25-2.12-0.918-3.52-2.73-5.88-4.75-8.88v-3z" fill="#006038"/>
<path transform="translate(1089 1173)" d="m0 0c0.681 0.412 1.36 0.825 2.06 1.25-2.94 1.96-5.76 3.58-9 5-0.99-0.33-1.98-0.66-3-1v-2c6.28-4.18 6.28-4.18 9.94-3.25z" fill="#006038"/>
<path transform="translate(837,498)" d="m0 0c2.51 1.26 2.85 2.32 4.06 4.81 0.512 1.03 0.512 1.03 1.04 2.08 0.868 2.02 1.43 3.96 1.9 6.11-0.99-0.33-1.98-0.66-3-1v-3c-0.99-0.33-1.98-0.66-3-1-1.25-2.94-1.25-2.94-2-6 0.33-0.66 0.66-1.32 1-2z" fill="#006038"/>
<path transform="translate(1177,1049)" d="m0 0h1v7c-2.64 0.66-5.28 1.32-8 2 1-3.01 1.6-4.06 4-6h3v-3z" fill="#00643A"/>
<path transform="translate(1015,741)" d="m0 0c2.62 1.05 3.79 1.65 5.25 4.12 0.247 0.619 0.495 1.24 0.75 1.88h-2v3c-0.99-0.33-1.98-0.66-3-1-0.33-2.64-0.66-5.28-1-8z" fill="#006339"/>
<path transform="translate(928,479)" d="m0 0c2.46 2.3 4.32 4.76 6.19 7.56 0.53 0.785 1.06 1.57 1.61 2.38 1.21 2.06 1.21 2.06 1.21 4.06-3.77-1.26-4.21-2.51-6.19-5.88-0.53-0.884-1.06-1.77-1.61-2.68-1.21-2.45-1.21-2.45-1.21-5.45z" fill="#006038"/>
<path transform="translate(363,1079)" d="m0 0c4.04 1.34 6.39 3.05 9.31 6.12 0.697 0.724 1.39 1.45 2.11 2.2 0.519 0.554 1.04 1.11 1.57 1.68-4.12 0-5.2-1.68-8.19-4.44-0.901-0.824-1.8-1.65-2.73-2.5-0.687-0.682-1.37-1.36-2.08-2.07v-1z" fill="#006038"/>
<path transform="translate(443,987)" d="m0 0c1 3 1 3 0.223 4.82-1.07 1.73-2.15 3.45-3.22 5.18-0.66-0.66-1.32-1.32-2-2 0.354-2.26 0.975-3.95 2-6h3v-2z" fill="#006038"/>
</svg>
